<svg xmlns="http://www.w3.org/2000/svg" viewBox="0 0 191.06 41.4"><defs><style>.cls-1,.cls-2,.cls-3{font-size:36px;font-family:OpenSans-Extrabold, Open Sans;font-weight:800;}.cls-1,.cls-3{letter-spacing:-0.02em;}.cls-2{letter-spacing:-0.03em;}.cls-3{fill:#585a7a;}.cls-4{fill:#fefefd;}.cls-5{fill:#fefefe;}.cls-6{fill:#fcfcfb;}.cls-7{fill:#fcfbfa;}.cls-8{fill:#f9f8f6;}.cls-9{fill:#fbf9f8;}.cls-10{fill:#faf9f9;}.cls-11{fill:#f9f7f4;}.cls-12{fill:#f5f2ef;}.cls-13{fill:#f8f6f3;}.cls-14{fill:#f9f7f6;}.cls-15{fill:#f8f6f4;}.cls-16{fill:#f8f6f5;}.cls-17{fill:#f5f0ec;}.cls-18{fill:#f2ede9;}.cls-19{fill:#f2ede8;}.cls-20{fill:#f4f0ec;}.cls-21{fill:#f2eeec;}.cls-22{fill:#f4efea;}.cls-23{fill:#f4efeb;}.cls-24{fill:#f0ece9;}.cls-25{fill:#f0e9e1;}.cls-26{fill:#ece3da;}.cls-27{fill:#ece5df;}.cls-28{fill:#efe8e2;}.cls-29{fill:#ede6e0;}.cls-30{fill:#eee6df;}.cls-31{fill:#f1eae2;}.cls-32{fill:#f0eae5;}.cls-33{fill:#f0e9e0;}.cls-34{fill:#e8e1dc;}.cls-35{fill:#e9e0d8;}.cls-36{fill:#e5ddd7;}.cls-37{fill:#e7ddd4;}.cls-38{fill:#ece1d0;}.cls-39{fill:#e9ded0;}.cls-40{fill:#eae1d7;}.cls-41{fill:#e3d7ca;}.cls-42{fill:#e3d9d1;}.cls-43{fill:#e6ddd3;}.cls-44{fill:#e7dcd1;}.cls-45{fill:#dfd4cd;}.cls-46{fill:#e2d8d2;}.cls-47{fill:#eadcc6;}.cls-48{fill:#e7d8c4;}.cls-49{fill:#e2d4c3;}.cls-50{fill:#e7dbcc;}.cls-51{fill:#ddd0c5;}.cls-52{fill:#dbcdc0;}.cls-53{fill:#e3d6c6;}.cls-54{fill:#ddd2ca;}.cls-55{fill:#e7d9c2;}.cls-56{fill:#dcd0c8;}.cls-57{fill:#d9ccc2;}.cls-58{fill:#e8d8c0;}.cls-59{fill:#eee0ca;}.cls-60{fill:#e8d8c1;}.cls-61{fill:#e4d3bb;}.cls-62{fill:#d7c7ba;}.cls-63{fill:#e1d0b8;}.cls-64{fill:#dcccbb;}.cls-65{fill:#d8c7b6;}.cls-66{fill:#dac9b9;}.cls-67{fill:#decebd;}.cls-68{fill:#dccec2;}.cls-69{fill:#dfcfb9;}.cls-70{fill:#e2d3bc;}.cls-71{fill:#e5d5bf;}.cls-72{fill:#d8c9bf;}.cls-73{fill:#c0a998;}.cls-74{fill:#c2ac9c;}.cls-75{fill:#f0e3cf;}.cls-76{fill:#f2e6d4;}.cls-77{fill:#c4af9f;}.cls-78{fill:#d3ccc0;}.cls-79{fill:#eadbc4;}.cls-80{fill:#cfc6b8;}.cls-81{fill:#cbc2b2;}.cls-82{fill:#cec5b7;}.cls-83{fill:#d2cbbf;}.cls-84{fill:#d0c8bb;}.cls-85{fill:#d3c3ab;}.cls-86{fill:#e7decd;}.cls-87{fill:#e3d1b8;}.cls-88{fill:#ddccb5;}.cls-89{fill:#d4c3b3;}.cls-90{fill:#ddcbb3;}.cls-91{fill:#dbcab6;}.cls-92{fill:#c7bcab;}.cls-93{fill:#c8bdac;}.cls-94{fill:#c7bba9;}.cls-95{fill:#dfceb5;}.cls-96{fill:#ddcbb2;}.cls-97{fill:#dbc8b0;}.cls-98{fill:#d4c2b2;}.cls-99{fill:#d7c3ac;}.cls-100{fill:#d3c0ae;}.cls-101{fill:#d9c6ae;}.cls-102{fill:#b8aca2;}.cls-103{fill:#ddcbb4;}.cls-104{fill:#dac8b1;}.cls-105{fill:#d4c5b9;}.cls-106{fill:#d9c6b1;}.cls-107{fill:#d5c3b2;}.cls-108{fill:#d5c6bc;}.cls-109{fill:#b39f99;}.cls-110{fill:#bda794;}.cls-111{fill:#e8d7bf;}.cls-112{fill:#e2d0b7;}.cls-113{fill:#eee1cb;}.cls-114{fill:#ecdec7;}.cls-115{fill:#d6d3cd;}.cls-116{fill:#d4d0c7;}.cls-117{fill:#f4ead8;}.cls-118{fill:#f3eadb;}.cls-119{fill:#c6b1a2;}.cls-120{fill:#efe3cf;}.cls-121{fill:#eddfc9;}.cls-122{fill:#d1cabd;}.cls-123{fill:#eadec9;}.cls-124{fill:#e6d8c1;}.cls-125{fill:#e1d8c6;}.cls-126{fill:#eaddc9;}.cls-127{fill:#cac0af;}.cls-128{fill:#c3b6a5;}.cls-129{fill:#e1cfb6;}.cls-130{fill:#ddcab2;}.cls-131{fill:#ccbba3;}.cls-132{fill:#d4c0af;}.cls-133{fill:#d4c0ac;}.cls-134{fill:#dac6ad;}.cls-135{fill:#dac7af;}.cls-136{fill:#d6c2ac;}.cls-137{fill:#c6baa8;}.cls-138{fill:#c5baa8;}.cls-139{fill:#e1d1b8;}.cls-140{fill:#ddccb2;}.cls-141{fill:#d1bdab;}.cls-142{fill:#d3bfa9;}.cls-143{fill:#d5c2ab;}.cls-144{fill:#d2c1b1;}.cls-145{fill:#bdb09e;}.cls-146{fill:#c0b3a1;}.cls-147{fill:#d4c0ab;}.cls-148{fill:#b7aa9d;}.cls-149{fill:#bba391;}.cls-150{fill:#bba390;}.cls-151{fill:#b9a18f;}.cls-152{fill:#d8c4ac;}.cls-153{fill:#af9991;}.cls-154{fill:#b09b95;}.cls-155{fill:#d2bfae;}.cls-156{fill:#d3c2b3;}.cls-157{fill:#b69c8a;}.cls-158{fill:#b9a08e;}.cls-159{fill:#d5c1ac;}.cls-160{fill:#d4bfa9;}.cls-161{fill:#d7c2ab;}.cls-162{fill:#ae978e;}.cls-163{fill:#d2beaa;}.cls-164{fill:#d9c7af;}.cls-165{fill:#dfcdb4;}.cls-166{fill:#bba28f;}.cls-167{fill:#bfa997;}.cls-168{fill:#d9c6ab;}.cls-169{fill:#c2ac9b;}.cls-170{fill:#ddc9b0;}.cls-171{fill:#c8b5a7;}.cls-172{fill:#d8d5d2;}.cls-173{fill:#f8efe2;}.cls-174{fill:#d9d8d7;}.cls-175{fill:#f6ebdd;}.cls-176{fill:#c8b5a6;}.cls-177{fill:#cab7ab;}.cls-178{fill:#eee2d1;}.cls-179{fill:#ccbbb0;}.cls-180{fill:#cab8aa;}.cls-181{fill:#f2e7d7;}.cls-182{fill:#c1b3a1;}.cls-183{fill:#dcc8af;}.cls-184{fill:#d4c0a9;}.cls-185{fill:#bdaf9e;}.cls-186{fill:#baac9b;}.cls-187{fill:#d3beab;}.cls-188{fill:#d0bba6;}.cls-189{fill:#d4bfa7;}.cls-190{fill:#b09788;}.cls-191{fill:#ccb6a0;}.cls-192{fill:#b39988;}.cls-193{fill:#b49b8a;}.cls-194{fill:#b69d8b;}.cls-195{fill:#b79e8c;}.cls-196{fill:#baab9b;}.cls-197{fill:#bbad9d;}.cls-198{fill:#d3bfa4;}.cls-199{fill:#b7a899;}.cls-200{fill:#ae958a;}.cls-201{fill:#d1bda9;}.cls-202{fill:#dac6ae;}.cls-203{fill:#b29887;}.cls-204{fill:#ae9587;}.cls-205{fill:#ddc9b1;}.cls-206{fill:#f9f2e8;}.cls-207{fill:#ccbdb5;}.cls-208{fill:#fefaf4;}.cls-209{fill:#f9f4ec;}.cls-210{fill:#f8efe3;}.cls-211{fill:#fdf8f1;}.cls-212{fill:#cec1bc;}.cls-213{fill:#b8a99a;}.cls-214{fill:#f9f3eb;}.cls-215{fill:#f9f3ea;}.cls-216{fill:#cebfb8;}.cls-217{fill:#fefcf9;}.cls-218{fill:#f9f4ed;}</style></defs><title>logo_8</title><g id="Layer_2" data-name="Layer 2"><g id="Layer_3" data-name="Layer 3"><text class="cls-1" transform="translate(31.83 30.85) scale(0.7)">TAO</text><text class="cls-2" transform="translate(83.21 30.85)"> </text><text class="cls-3" transform="translate(91.66 30.85) scale(0.7)">STUDIO</text><path class="cls-4" d="M0,29.88c.31-.53.61-1.06.93-1.59a6.56,6.56,0,0,0,.87-1.66,2.17,2.17,0,0,1,.9-1.31,1.37,1.37,0,0,0,.51-.83,5.46,5.46,0,0,1,.9-1.9c.59-1.05,1.19-2.1,1.83-3.12.51-.82,1.14-1.55,1.61-2.39.85-1.55,1.77-3,2.63-4.59A4.64,4.64,0,0,1,11.53,11h1.73c.06.15.22.2.35.26a1.75,1.75,0,0,1,.76.69c1,1.51,1.86,3.06,2.88,4.53.66,1,1.37,1.87,2,2.86a21,21,0,0,1,1.53,2.51,33.32,33.32,0,0,0,1.86,3.43c.2.34.55.44.78.73.4.51.45,1.17.81,1.69s.88,1.32,1.31,2c0,1.06,0,2.12,0,3.17,0,.3,0,.38-.36.38H8.09a1,1,0,0,0-.58-.09c-1.22,0-2.44,0-3.67,0-.57,0-1.14-.06-1.72-.07a2.83,2.83,0,0,1-1.25-.37A1.78,1.78,0,0,1,0,31.6Z"/><path class="cls-5" d="M0,31.6c.06.06.15.12.18.19a2.21,2.21,0,0,0,2,1.17c1.81.16,3.62.07,5.43.09.17,0,.34,0,.43.18-2.58,0-5.15,0-7.73,0-.32,0-.38-.08-.36-.38S0,32,0,31.6Z"/><path class="cls-6" d="M3.46,32.69a6,6,0,0,1-1.53-.11A1.86,1.86,0,0,1,.5,30,9.93,9.93,0,0,1,1.72,27.6c.15-.26.24-.56.39-.81,1.18-2,2.4-4,3.56-6.08C7.15,18.1,8.84,15.63,10.25,13a3.34,3.34,0,0,1,1.23-1.41,2.2,2.2,0,0,1,2.72.65c.56,1,1.2,1.91,1.81,2.86.95,1.48,1.93,3,2.86,4.44.7,1.13,1.43,2.26,2.08,3.43.54,1,1.15,1.9,1.78,2.82.8,1.17,1.45,2.42,2.14,3.65a2.14,2.14,0,0,1-.12,2.49,2.6,2.6,0,0,1-2,.76c-1.48,0-2.95.12-4.43.13-.67,0-1.34.05-2,.07a1,1,0,0,1-.68-.18,1.43,1.43,0,0,1,.9-.21c.84,0,1.67,0,2.51-.1s1.53,0,2.3-.06c.58-.07,1.17-.09,1.75-.13a1.59,1.59,0,0,0,1.62-1.43,1.78,1.78,0,0,0-.17-1.05,16.1,16.1,0,0,0-1.41-2.37c-.74-1.2-1.44-2.41-2.2-3.59l-4.35-6.89a2.16,2.16,0,0,1-.22-.39,2.86,2.86,0,0,0-.47-.92c-.61-.93-1.21-1.88-1.83-2.8a1.78,1.78,0,0,0-3.21.1A23.87,23.87,0,0,1,9.54,15a6.74,6.74,0,0,0-1,1.51l-.07.11a1.45,1.45,0,0,0-.18.35l-.27.4a4.58,4.58,0,0,0-.6,1l-.06.11C6.1,20.57,4.81,22.7,3.57,24.86A25.59,25.59,0,0,0,2.3,27.15l-.06.12a6.66,6.66,0,0,0-.45.83A12.74,12.74,0,0,0,1,29.66a1.77,1.77,0,0,0,0,2,1.73,1.73,0,0,0,1.51.72.75.75,0,0,1,.21,0,2.17,2.17,0,0,0,.5.13C3.3,32.5,3.46,32.49,3.46,32.69Z"/><path class="cls-6" d="M3.46,32.69c-.24-.2-.62,0-.82-.27a.76.76,0,0,1,.65-.12c1.67.12,3.34.07,5,.08a4.05,4.05,0,0,1,1.25.11,2,2,0,0,0,.59,0h.7c.88.11,1.77,0,2.65,0a7.22,7.22,0,0,0,1.47,0c.14,0,.35,0,.38.2-.13.15-.31.09-.47.09H12.52c-1.52,0-3,.09-4.56,0S5,32.87,3.46,32.69Z"/><path class="cls-7" d="M15.34,32.69c-.08-.12-.21-.1-.33-.09-.94.09-1.89-.09-2.82,0a9.07,9.07,0,0,1-1.38,0c.07-.3.33-.21.51-.21,1,0,1.92,0,2.87,0a1.61,1.61,0,0,0,.58-.05c1.29,0,2.58-.11,3.87-.11.17.1.45,0,.51.29l-3.53.18Z"/><path class="cls-8" d="M16.43,16.45c.67,1.06,1.33,2.12,2,3.17,1.09,1.71,2.18,3.42,3.24,5.15.5.82,1,1.65,1.48,2.47a.17.17,0,0,1,0,.19.2.2,0,0,1-.13,0c-.26-.11-.34-.38-.46-.59-1.16-2-2.4-4-3.65-5.94l-.38-.58a7.25,7.25,0,0,0-.93-1.4c-.77-1-1.34-2.11-2-3.15-.39-.61-.82-1.19-1.17-1.82a1.34,1.34,0,0,1-.25-.62.31.31,0,0,1,.06-.19c.15-.06.18.07.23.15C15.13,14.37,15.83,15.38,16.43,16.45Z"/><path class="cls-9" d="M16.43,16.45a14.22,14.22,0,0,1-1.26-1.9c-.31-.45-.61-.91-.92-1.37-.19.06-.25-.11-.33-.22a3.19,3.19,0,0,0-.73-.78,1,1,0,0,0-.76-.19,3.68,3.68,0,0,0-.85.34.85.85,0,0,0-.38.37,18.63,18.63,0,0,0-1.21,2c-.71,1.13-1.41,2.27-2.07,3.44l-.06.11a1.44,1.44,0,0,0-.25.39.31.31,0,0,1-.05.1,1.6,1.6,0,0,0-.29.44l-.06.09a1.24,1.24,0,0,0-.17.37c-.21.41-.47.79-.72,1.18-.1.08-.19.2-.35.11a4.15,4.15,0,0,1,.66-1.29c.25-.41.51-.81.73-1.24s.41-.73.63-1.08c.08-.14.11-.3.28-.37s.08-.26.18-.36h0c.34-.54.65-1.1,1-1.63.42-.69.85-1.37,1.27-2.05a2.19,2.19,0,0,1,1.16-1.08,1.85,1.85,0,0,1,2.13.73c.76,1.15,1.51,2.32,2.27,3.48A.69.69,0,0,1,16.43,16.45Z"/><path class="cls-10" d="M8.36,32.51c-1.91,0-3.81,0-5.72-.09H2.46A1.82,1.82,0,0,1,.69,31a2.27,2.27,0,0,1,.23-1.4,6,6,0,0,1,.81-1.54c.19-.25.28-.56.46-.82v-.09c.3-.42.5-.91.77-1.35.08-.13.11-.29.3-.3.15.14,0,.28,0,.42a.24.24,0,0,1-.06.11,2.92,2.92,0,0,0-.47.91c-.09.24-.24.45-.32.7a15.32,15.32,0,0,0-1.06,2.15C.92,31,1.12,31.46,2.27,32a3.75,3.75,0,0,0,1.76.2.43.43,0,0,1,.16,0c1.22,0,2.43.15,3.65.12C8,32.29,8.28,32.2,8.36,32.51Z"/><path class="cls-10" d="M23.15,27.43v-.19s.06,0,.07.05A10.22,10.22,0,0,1,24.7,29.9c.53,1.61-.63,2.38-1.86,2.45-.7,0-1.4,0-2.1.13a5.93,5.93,0,0,1-1.33,0,.58.58,0,0,0-.26.06c-.1-.18-.34,0-.45-.18a.58.58,0,0,1,.29-.17.35.35,0,0,1,.14,0,17,17,0,0,0,1.75,0A4.63,4.63,0,0,1,22,32a2.63,2.63,0,0,0,.49,0,2.81,2.81,0,0,0,1.34-.28,1.14,1.14,0,0,0,.61-.83,2.58,2.58,0,0,0-.68-2.09,1,1,0,0,1-.13-.22.87.87,0,0,0-.23-.47.31.31,0,0,1-.05-.1.79.79,0,0,0-.17-.41S23.11,27.49,23.15,27.43Z"/><path class="cls-6" d="M3.28,25.52a4.1,4.1,0,0,0-.72,1.16c-.09.18-.16.38-.37.47A17.45,17.45,0,0,1,3.41,24.9c.89-1.5,1.8-3,2.66-4.5a20.75,20.75,0,0,1,1.29-2A8.75,8.75,0,0,1,6.46,20a3.25,3.25,0,0,0-.46.86c.11.15,0,.26-.06.37-.85,1.27-1.5,2.67-2.37,3.94C3.49,25.32,3.44,25.47,3.28,25.52Z"/><path class="cls-6" d="M.92,29.6A1.42,1.42,0,0,1,.87,30a1.71,1.71,0,0,0,1.35,2.36c.09,0,.18,0,.24.1a2.16,2.16,0,0,1-1.54-.59A1.94,1.94,0,0,1,.92,29.6Z"/><path class="cls-6" d="M9.45,14.91a5.6,5.6,0,0,1-1,1.63A5,5,0,0,1,9.45,14.91Z"/><path class="cls-6" d="M8,17.27a3.1,3.1,0,0,1-.63,1.08A2.16,2.16,0,0,1,8,17.27Z"/><path class="cls-6" d="M2.19,27.24a1.53,1.53,0,0,1-.46.82A1.68,1.68,0,0,1,2.19,27.24Z"/><path class="cls-6" d="M8.45,16.54a.5.5,0,0,1-.18.36A.31.31,0,0,1,8.45,16.54Z"/><path class="cls-9" d="M8.36,32.51c-.1-.13-.25-.1-.38-.09-1.19.06-2.37-.1-3.55-.1-.12,0-.25,0-.34-.09a.7.7,0,0,1,.7-.19c.63.09,1.26,0,1.88.11A1.06,1.06,0,0,0,7,32.2c1.49,0,3,.13,4.47.08.78,0,1.57-.1,2.35-.08a1.93,1.93,0,0,1,1,.22c-.13.14-.31.08-.47.08H11.27c-.15,0-.33-.06-.46.09h-.73c-.15-.12-.3,0-.45,0A6,6,0,0,0,8.36,32.51Z"/><path class="cls-7" d="M9.63,32.6a.29.29,0,0,1,.45,0C9.93,32.53,9.78,32.76,9.63,32.6Z"/><path class="cls-11" d="M14.8,32.42a10.07,10.07,0,0,0-2.26-.08,20.45,20.45,0,0,1-2.07.07c-1.18,0-2.36-.1-3.55-.08a.33.33,0,0,1-.29-.1c.18-.17.4-.12.61-.12h4a1.63,1.63,0,0,0,.58,0A.47.47,0,0,1,12,32c1.93-.06,3.85.15,5.77.08a6,6,0,0,0,.85,0,.34.34,0,0,1,.33.14c-.06.11-.17.09-.27.1Z"/><path class="cls-12" d="M14.25,13.36a5.94,5.94,0,0,0,.87,1.53c.58.91,1.18,1.81,1.73,2.74.26.44.57.85.85,1.27a.2.2,0,0,1,0,.25c-.34.06-.42-.26-.54-.45-.67-1-1.3-2.1-2-3.11a15.89,15.89,0,0,0-1.85-2.67,1.06,1.06,0,0,0-1.69,0,4.57,4.57,0,0,0-.91,1.22,4.19,4.19,0,0,1-.31.5,1.2,1.2,0,0,0-.29.47c-.2.34-.4.67-.59,1-.15.19-.25.41-.39.61a1,1,0,0,0-.27.37,2,2,0,0,1-.11.2,2.47,2.47,0,0,0-.19.36c-.13.19-.2.42-.42.53a.16.16,0,0,1-.12,0,.32.32,0,0,1,0-.27c.65-1.11,1.3-2.23,2-3.32a20.84,20.84,0,0,1,1.14-1.79,1.55,1.55,0,0,1,2.66,0C14,13,14.1,13.18,14.25,13.36Z"/><path class="cls-13" d="M23.69,28.52l.09.18c0,.14.17.24.18.4a.3.3,0,0,1-.08.24,2.62,2.62,0,0,1-.77-1,6,6,0,0,0-.48-.85C22,26.24,21.27,25.13,20.58,24c-.46-.76-1-1.48-1.39-2.26a1,1,0,0,0-.23-.48.22.22,0,0,1-.05-.11.23.23,0,0,1,0-.18l0-.05a13,13,0,0,1,1.3,2c.94,1.51,1.86,3,2.79,4.56.07.1.13.21.21.31s.08.16.15.23v.09A1.33,1.33,0,0,1,23.69,28.52Z"/><path class="cls-14" d="M14.25,13.36c-.32-.18-.46-.54-.73-.78a1.49,1.49,0,0,0-2.19.14c-.7.93-1.26,2-1.89,3-.46.73-.83,1.52-1.35,2.22-.11.08-.06.31-.28.27a1.41,1.41,0,0,1,.35-.76c.63-1,1.18-2,1.8-2.91.33-.5.59-1,.91-1.54a.77.77,0,0,1,.3-.32,1.13,1.13,0,0,1,.36-.36,1.63,1.63,0,0,1,.91-.37,1.81,1.81,0,0,1,.82.18,6.38,6.38,0,0,1,1,1.09Z"/><path class="cls-13" d="M17.7,19.17V18.9a4.49,4.49,0,0,1,.91,1.45l-.06,0c-.46-.24-.57-.75-.84-1.14Z"/><path class="cls-13" d="M18.61,20.35a.92.92,0,0,1,.36.54h0c-.34,0-.5-.18-.36-.54Z"/><path class="cls-14" d="M23.24,27.79a.31.31,0,0,1-.18-.36h.09l.09.09A.22.22,0,0,1,23.24,27.79Z"/><path class="cls-13" d="M7.81,18.17l.28-.27v.27c0,.4-.34.67-.49,1a3,3,0,0,0-.52.88.38.38,0,0,1-.09.15.69.69,0,0,0-.21.33.41.41,0,0,1-.07.11c-1.08,1.92-2.29,3.75-3.32,5.69a12.88,12.88,0,0,0-.78,1.47c0,.14-.13.33-.36.24s0-.3.12-.44c-.05-.3.24-.46.27-.73.26-.26.32-.63.55-.91.95-1.79,2-3.53,3.08-5.26A9.62,9.62,0,0,1,7,19.53c.09-.1.09-.25.18-.36h0c.13-.17.23-.37.36-.54h0a1.92,1.92,0,0,1,.27-.46Z"/><path class="cls-14" d="M6.27,20.71a13.75,13.75,0,0,1-1,1.8c-.61,1.1-1.26,2.19-1.9,3.27a.81.81,0,0,1-.18.19l.09-.45L5.8,21.29c.07-.13.21-.23.2-.4Z"/><path class="cls-8" d="M13.26,12.09l-.82-.18A.85.85,0,0,1,13.26,12.09Z"/><path class="cls-14" d="M7.54,18.63a.71.71,0,0,1-.36.54A.67.67,0,0,1,7.54,18.63Z"/><path class="cls-8" d="M11.53,12.28a.89.89,0,0,1-.36.36A.37.37,0,0,1,11.53,12.28Z"/><path class="cls-14" d="M7.81,18.17a.84.84,0,0,1-.27.46A.45.45,0,0,1,7.81,18.17Z"/><path class="cls-14" d="M7.18,19.17a.32.32,0,0,1-.18.36A.31.31,0,0,1,7.18,19.17Z"/><path class="cls-15" d="M2.37,27.61l-.09.45c.15.19,0,.34-.06.5a8.2,8.2,0,0,0-.6,1.27c-.3.88-.11,1.56.91,1.83a3.56,3.56,0,0,0,1.07.16c1.22,0,2.44.07,3.66.12,1.41.07,2.81.07,4.22.08a.54.54,0,0,1,.42.12c-.14.15-.31.09-.47.09-1.6,0-3.2,0-4.8,0l-2.19,0c-.11,0-.23,0-.35,0H4a6.12,6.12,0,0,1-1.81-.18A1.48,1.48,0,0,1,1,30.92a.89.89,0,0,1,0-.36A8.08,8.08,0,0,1,2.37,27.61Z"/><path class="cls-9" d="M2.19,32.05c.6.13,1.22,0,1.81.18A2.69,2.69,0,0,1,2.19,32.05Z"/><path class="cls-14" d="M3.19,26a1.54,1.54,0,0,1-.55.91C2.83,26.58,2.82,26.17,3.19,26Z"/><path class="cls-15" d="M23.87,29.33v-.27c.14,0,.19.08.23.17a2.67,2.67,0,0,1,.39,1.54c-.19.78-.55,1.18-2,1.28a.71.71,0,0,1-.45.09,8.82,8.82,0,0,0-2,0c-.36.1-.74-.11-1.1,0h0l-.27-.09c-.26.12-.55,0-.82.09-2,.07-3.93-.11-5.89-.09,0-.24.23-.21.38-.21a22.05,22.05,0,0,1,2.57.06c.43.06.87-.08,1.3-.06,1.72.06,3.43-.13,5.15-.1a1.61,1.61,0,0,0,.49-.07,4.35,4.35,0,0,0,1.19-.14,1.24,1.24,0,0,0,.84-1.87C23.86,29.61,23.75,29.48,23.87,29.33Z"/><path class="cls-14" d="M24.42,30.78a2.68,2.68,0,0,0-.55-1.72c0-.12-.2-.21-.09-.36a2.32,2.32,0,0,1,.73,2.17C24.45,30.87,24.44,30.82,24.42,30.78Z"/><path class="cls-16" d="M24.42,30.78l.09.09a1.07,1.07,0,0,1-.83,1c-.38.1-.75.34-1.17.17.1-.13.25-.07.38-.09A1.56,1.56,0,0,0,24.42,30.78Z"/><path class="cls-16" d="M20.06,32.14a4.5,4.5,0,0,1,2,0,4.67,4.67,0,0,0-1.18.09C20.62,32.11,20.32,32.26,20.06,32.14Z"/><path class="cls-11" d="M20.06,32.14c.27,0,.56-.09.82.09H19C19.32,32.05,19.7,32.19,20.06,32.14Z"/><path class="cls-8" d="M23.69,28.52a.84.84,0,0,1-.27-.46C23.68,28.11,23.68,28.32,23.69,28.52Z"/><path class="cls-8" d="M23.24,27.79v-.27a.53.53,0,0,1,.18.45A.27.27,0,0,1,23.24,27.79Z"/><path class="cls-17" d="M22,31.87a2.5,2.5,0,0,1-.72.1c-1.73,0-3.46.08-5.2.11-1.2,0-2.4-.1-3.59,0-.16,0-.34,0-.47.09H10c-1.28,0-2.57,0-3.84-.11a31,31,0,0,1-3.2-.16c-.59-.12-1.2-.2-1.45-.87a1.55,1.55,0,0,1,0-1.1,7.32,7.32,0,0,1,.75-1.54.46.46,0,0,0,.08-.3.38.38,0,0,0,.2-.23c.91-2,2.14-3.8,3.21-5.69a6.68,6.68,0,0,1,1-1.61c.16.18,0,.33-.06.48a4.24,4.24,0,0,0-.46.9,25.23,25.23,0,0,1-1.3,2.25,7.48,7.48,0,0,1-.71,1.19,1.38,1.38,0,0,0-.28.4.27.27,0,0,1-.06.1,1.73,1.73,0,0,0-.16.3.75.75,0,0,1-.09.15.9.9,0,0,0-.17.3.54.54,0,0,1-.05.11c-.47.84-.9,1.7-1.38,2.54a1.93,1.93,0,0,0-.2.44l-.09.22a1.09,1.09,0,0,0,0,.85c0,.09.06.18.11.28a.61.61,0,0,0,.47.38l.12,0a.85.85,0,0,0,.47.13,1.2,1.2,0,0,1,.2,0,6,6,0,0,0,.95,0,2.37,2.37,0,0,1,.46,0,10.61,10.61,0,0,0,1.69,0,3.81,3.81,0,0,1,.59,0,.9.9,0,0,0,.36,0c1.58,0,3.17,0,4.75,0a11,11,0,0,1,1.62-.06c1.37.15,2.74,0,4.11.07a1.19,1.19,0,0,0,.53,0,13.73,13.73,0,0,1,1.43,0,2.15,2.15,0,0,0,.8-.06,5.16,5.16,0,0,1,1.57.05A.11.11,0,0,1,22,31.87Z"/><path class="cls-16" d="M17.88,32.23c.26-.18.55,0,.82-.09C18.45,32.33,18.15,32.19,17.88,32.23Z"/><path class="cls-18" d="M9.45,16.09a5.12,5.12,0,0,1,.63-1,2.13,2.13,0,0,1,.27-.46,6.32,6.32,0,0,1,1.23-1.8,1.19,1.19,0,0,1,1.85,0,20.76,20.76,0,0,1,1.86,2.72c.78,1.15,1.52,2.34,2.27,3.51,0,.05.1.07.14.11.34.62.78,1.17,1.07,1.81a.26.26,0,0,1-.05.19c-.36-.08-.45-.42-.6-.67-.75-1.25-1.61-2.44-2.33-3.71a1,1,0,0,0-.29-.29.49.49,0,0,1-.14-.21,9.26,9.26,0,0,0-1.08-1.79,12.25,12.25,0,0,0-.9-1.24,1,1,0,0,0-1.62-.11,7.91,7.91,0,0,0-1.17,1.7,5.18,5.18,0,0,0-.57.89c-.11.16-.19.34-.39.41A.2.2,0,0,1,9.45,16.09Z"/><path class="cls-19" d="M9.45,16.09h.18c.12.15,0,.28-.06.4-.41.72-.86,1.4-1.28,2.1-.16.26-.3.53-.45.78a.36.36,0,0,1-.07.1,1.18,1.18,0,0,0-.25.4.47.47,0,0,1,0,.1,2.25,2.25,0,0,0-.32.56l-.19.3a2,2,0,0,0-.33.48.24.24,0,0,1-.06.09,1.27,1.27,0,0,0-.15.31.76.76,0,0,1-.11.14c-.07,0-.13.1-.22,0a3.72,3.72,0,0,1,.51-1,.63.63,0,0,0,.12-.37c.1-.1.1-.26.19-.36L7,20.08a3.47,3.47,0,0,1,.52-.84c.23-.35.42-.72.66-1.07a1.76,1.76,0,0,1,.36-.54,1.22,1.22,0,0,0,.18-.36l.09-.19c.09-.12.19-.23.27-.36Z"/><path class="cls-20" d="M8.18,18.17a2.56,2.56,0,0,1-.64,1.09s0,0,0-.06,0,0,0,0a3.75,3.75,0,0,1,.55-1Z"/><path class="cls-20" d="M10.35,14.63a.84.84,0,0,1-.27.46A.45.45,0,0,1,10.35,14.63Z"/><path class="cls-20" d="M9.08,16.72a.41.41,0,0,1-.27.36A.44.44,0,0,1,9.08,16.72Z"/><path class="cls-20" d="M8.72,17.27a.32.32,0,0,1-.18.36A.45.45,0,0,1,8.72,17.27Z"/><path class="cls-21" d="M22,31.78H20.33c-.23.12-.49,0-.72.09H18.16a1.28,1.28,0,0,1-.75,0c.07-.25.28-.22.44-.21.95.05,1.89-.12,2.83-.1.31,0,.6-.11.9-.09a4.86,4.86,0,0,0,1.26-.08A1,1,0,0,0,23.69,30,6.49,6.49,0,0,0,23,28.45a1.81,1.81,0,0,1-.35-.9.19.19,0,0,1,.07-.12.69.69,0,0,1,.34.45,10,10,0,0,0,.84,1.45,6.71,6.71,0,0,1,.31,1,1.24,1.24,0,0,1-1,1.34A3.63,3.63,0,0,1,22,31.78Z"/><path class="cls-22" d="M22.69,27.43v.09c-.32-.05-.4-.33-.52-.56A15.22,15.22,0,0,0,20.91,25c-.34-.42-.52-.94-.83-1.39-.42-.69-.87-1.36-1.25-2.06-.07-.13-.19-.24-.13-.41V21c.18-.06.19.11.27.19a2.56,2.56,0,0,1,.27.45c1.08,1.74,2.17,3.47,3.24,5.22A2.75,2.75,0,0,1,22.69,27.43Z"/><path class="cls-12" d="M19,21.17,18.7,21a11.24,11.24,0,0,0-.9-1.48.56.56,0,0,1-.1-.33c.3.2.38.56.58.83s.17.28.33.35c0,.28.16.41.36.54Z"/><path class="cls-12" d="M19.24,21.62a.57.57,0,0,1-.27-.45A.41.41,0,0,1,19.24,21.62Z"/><path class="cls-17" d="M7.54,19.17v.09L7,20.08A1.44,1.44,0,0,1,7.54,19.17Z"/><path class="cls-17" d="M6.91,20.17c0,.15,0,.29-.19.36C6.72,20.38,6.74,20.24,6.91,20.17Z"/><path class="cls-23" d="M22,31.78a5.81,5.81,0,0,1,1.18-.09,2.4,2.4,0,0,1-1.18.18Z"/><path class="cls-24" d="M3,31.69H2.82c-.14-.07-.32-.06-.45-.18H2.28a1.11,1.11,0,0,1-.55-.45c-.1-.07-.08-.18-.09-.28a1.53,1.53,0,0,1,0-.9c0-.08,0-.15.09-.19s.11-.3.19-.45a24,24,0,0,1,1.45-2.63c.13.22,0,.41-.09.6-.15.39-.42.73-.58,1.12s-.45.89-.64,1.35a1.15,1.15,0,0,0,1.07,1.71c1,.09,2.07.15,3.11.19.55,0,1.11.08,1.67.09.13,0,.38-.06.31.24a9.4,9.4,0,0,1-1.5,0H6.18a7.35,7.35,0,0,0-1.24-.05c-.16,0-.33.05-.48,0H4C3.68,31.65,3.33,31.81,3,31.69Z"/><path class="cls-25" d="M2.64,28.24a9.54,9.54,0,0,0,.73-1.63c.1-.1.09-.26.18-.36l.09-.09c.07-.12.08-.26.18-.37h0a2.07,2.07,0,0,0,.27-.45l2-3.45.18-.09c.14.22,0,.37-.11.54a3.2,3.2,0,0,0-.27.52.7.7,0,0,1-.1.16,1.17,1.17,0,0,0-.26.46.31.31,0,0,1,0,.1.82.82,0,0,0-.3.56,10.33,10.33,0,0,1-.94,1.65,21.5,21.5,0,0,0-1.06,1.94c-.22.22-.17.63-.55.7A.17.17,0,0,1,2.64,28.24Z"/><path class="cls-23" d="M6.72,31.87H8.27a.53.53,0,0,1,.42-.12h.5c1.11,0,2.23,0,3.34-.08,1.49-.06,3,.14,4.48.09a.5.5,0,0,1,.42.12h.73c-.14.15-.32.09-.47.09-1.09,0-2.18,0-3.27,0C12,31.87,9.63,32,7.24,32,7.07,32,6.87,32,6.72,31.87Z"/><path class="cls-23" d="M4.46,31.78a6.63,6.63,0,0,1,1.72.09A6.61,6.61,0,0,1,4.46,31.78Z"/><path class="cls-23" d="M1.64,29.88v.9C1.33,30.48,1.55,30.18,1.64,29.88Z"/><path class="cls-23" d="M3,31.69c.33,0,.68-.1,1,.09C3.67,31.73,3.32,31.88,3,31.69Z"/><path class="cls-23" d="M1.73,31.06l.55.45A.53.53,0,0,1,1.73,31.06Z"/><path class="cls-24" d="M4.09,25.34a.41.41,0,0,1-.27.45A.57.57,0,0,1,4.09,25.34Z"/><path class="cls-23" d="M19.61,31.87c.22-.18.48-.05.72-.09C20.11,32,19.85,31.83,19.61,31.87Z"/><path class="cls-24" d="M3.55,26.25a.32.32,0,0,1-.18.36C3.36,26.45,3.38,26.32,3.55,26.25Z"/><path class="cls-23" d="M2.37,31.51a.9.9,0,0,1,.45.18C2.65,31.69,2.46,31.72,2.37,31.51Z"/><path class="cls-23" d="M1.92,29.24a.51.51,0,0,1-.19.45A.53.53,0,0,1,1.92,29.24Z"/><path class="cls-24" d="M3.82,25.79a.49.49,0,0,1-.18.37A.33.33,0,0,1,3.82,25.79Z"/><path class="cls-26" d="M15.43,16.27l.1.18a6.62,6.62,0,0,1,.9,1.33c1,1.59,2,3.16,3,4.77a8.45,8.45,0,0,0,.6.95,8.78,8.78,0,0,0,1,1.65,25.06,25.06,0,0,1,1.73,2.91,15.83,15.83,0,0,1,.82,1.65,1.16,1.16,0,0,1-.78,1.65,3.22,3.22,0,0,1-1.07.15c-1.51.12-3,.16-4.55.26a16.42,16.42,0,0,1-2.89-.05,16,16,0,0,0-3,0,23.1,23.1,0,0,1-3.43,0c-.54,0-1.09,0-1.63-.08-.11,0-.28.08-.34-.12.28-.24.61-.1.91-.14.59,0,1.17,0,1.75,0a1.65,1.65,0,0,1,.31,0,.89.89,0,0,0,.58,0c.58-.05,1.15,0,1.72,0a2.79,2.79,0,0,0,.58-.07,3.08,3.08,0,0,0,.68-.07,1.83,1.83,0,0,1,1.18,0,1.94,1.94,0,0,0,.59.06l.23,0a40,40,0,0,0,4.24,0,2.59,2.59,0,0,1,.48,0,3.63,3.63,0,0,0,.93-.05,4.9,4.9,0,0,1,.77,0,2,2,0,0,0,.64,0A7.84,7.84,0,0,0,22.55,31a.88.88,0,0,0,.63-1.3A23.82,23.82,0,0,0,22,27.48C21,25.69,19.81,24,18.72,22.19c-.11-.16-.18-.35-.29-.51-.95-1.7-2-3.32-3.08-5a1.16,1.16,0,0,0-.18-.2.81.81,0,0,1-.09-.1,1.06,1.06,0,0,1-.09-.25.36.36,0,0,1,0-.25.17.17,0,0,1,.12-.05C15.33,15.94,15.33,16.14,15.43,16.27Z"/><path class="cls-27" d="M10.54,14.82A5.38,5.38,0,0,1,11.75,13a1,1,0,0,1,1.61.06,7.09,7.09,0,0,1,1,1.38c.14.33.48.57.46,1-.23.08-.27-.12-.36-.25-.34-.53-.68-1.06-1.07-1.56-.54-.7-1-.71-1.64-.09a7.78,7.78,0,0,0-1,1.57c-.11.17-.17.41-.46.35C10.18,15.17,10.42,15,10.54,14.82Z"/><path class="cls-28" d="M20,23.53c-.56-.71-.95-1.53-1.45-2.28s-1-1.55-1.46-2.32-1-1.66-1.53-2.48c.23,0,.3.2.41.37l2.76,4.35,1.45,2.45C20.05,23.67,20,23.58,20,23.53Z"/><path class="cls-29" d="M10.54,14.82c0,.24-.28.38-.28.63a.2.2,0,0,1,.06.19c-.68,1.22-1.46,2.38-2.14,3.6a.5.5,0,0,1-.2.18.27.27,0,0,1-.26,0,10.65,10.65,0,0,1,1-1.77,13.08,13.08,0,0,0,.9-1.58C10,15.73,10.08,15.13,10.54,14.82Z"/><path class="cls-28" d="M14.8,15.45c0-.38-.4-.62-.45-1a5.6,5.6,0,0,1,1.08,1.82c-.16-.07-.19-.23-.27-.37a.94.94,0,0,1-.35-.39Z"/><path class="cls-30" d="M7.72,19.44l.18-.09c.2.32-.13.49-.19.74-.45.78-1,1.52-1.36,2.32-.1.19-.18.42-.41.52a.16.16,0,0,1-.12,0c0-.43.42-.68.45-1.09l.09-.09c.1-.1.09-.26.18-.36h0c.14-.17.24-.37.37-.55a.27.27,0,0,1,.18-.27,4.89,4.89,0,0,1,.36-.63h0a4.25,4.25,0,0,1,.27-.46Z"/><path class="cls-25" d="M6.91,20.8a.72.72,0,0,1-.37.55A.72.72,0,0,1,6.91,20.8Z"/><path class="cls-29" d="M7.45,19.9a1.22,1.22,0,0,1-.36.63A.8.8,0,0,1,7.45,19.9Z"/><path class="cls-29" d="M7.72,19.44a.57.57,0,0,1-.27.46A.45.45,0,0,1,7.72,19.44Z"/><path class="cls-25" d="M6.54,21.35a.31.31,0,0,1-.18.36A.32.32,0,0,1,6.54,21.35Z"/><path class="cls-31" d="M5.91,31.51a.27.27,0,0,0,.24.09c1.57,0,3.14.17,4.7.08a16.31,16.31,0,0,1,2.79-.14,22.82,22.82,0,0,0,3.6.14c1.55-.06,3.09-.17,4.64-.26.05.17-.15.1-.19.18-1.35.1-2.7.2-4.06.19a.56.56,0,0,0-.2.08c-3-.09-6.11,0-9.16,0A.28.28,0,0,0,8,31.78a21.36,21.36,0,0,1-2.65-.11,12.24,12.24,0,0,1-2.76-.26,1.21,1.21,0,0,1-.7-1.69c.2-.51.49-1,.73-1.48v.18c.13.44-.23.72-.34,1.08a1.67,1.67,0,0,0-.16.46c-.07.8.16,1.13,1,1.26a10.67,10.67,0,0,0,2.19.17A.72.72,0,0,1,5.91,31.51Z"/><path class="cls-32" d="M21.69,31.6l.19-.18A2.37,2.37,0,0,0,23.3,31a.9.9,0,0,0,.24-1.07,24.93,24.93,0,0,0-2.19-4.11L21,25.16A.12.12,0,0,1,21,25a8.91,8.91,0,0,1,1.25,1.84,5.7,5.7,0,0,0,.47.7,7.22,7.22,0,0,0,.75,1.56,6.07,6.07,0,0,1,.38,1,1.14,1.14,0,0,1-1,1.48A5.77,5.77,0,0,1,21.69,31.6Z"/><path class="cls-33" d="M21,25v.18a6.39,6.39,0,0,1-1-1.63l.18.09A14.43,14.43,0,0,1,21,25Z"/><path class="cls-34" d="M5.91,31.51A19.2,19.2,0,0,1,3,31.34c-1.08-.16-1.13-1.1-.85-1.77.16-.38.38-.75.51-1.15l.46-.72c.13.14,0,.29,0,.44a1.67,1.67,0,0,1-.12.23,1.47,1.47,0,0,0-.26.6c0,.09-.07.18-.11.27a.74.74,0,0,0-.17.42l0,.12a1.55,1.55,0,0,0,0,.48c0,.45.37.61.73.74.14.05.29,0,.44.09.95.06,1.91.18,2.86.21.15,0,.35,0,.39.21Z"/><path class="cls-35" d="M3,28.15l.09-.45a22.73,22.73,0,0,1,1.63-2.93,4.63,4.63,0,0,0,.36-.7,3.38,3.38,0,0,1,.36-.54h0A2.59,2.59,0,0,1,5.73,23l.09-.09h.09c.18.29,0,.49-.17.69-.58,1.05-1.18,2.09-1.81,3.11-.24.39-.36.83-.61,1.21C3.24,28,3.21,28.19,3,28.15Z"/><path class="cls-30" d="M5.45,23.53a.87.87,0,0,1-.36.54C5.07,23.79,5.26,23.66,5.45,23.53Z"/><path class="cls-30" d="M5.73,23a1,1,0,0,1-.28.55A.6.6,0,0,1,5.73,23Z"/><path class="cls-36" d="M19.15,31.42H18.7a9.49,9.49,0,0,1-1.41,0c-.07-.3.19-.25.32-.25a17.08,17.08,0,0,0,2-.1,24.37,24.37,0,0,0,2.56-.25c.87-.19,1-.61.63-1.4-.3-.61-.6-1.21-.85-1.84a.23.23,0,0,1,.09-.19A9.87,9.87,0,0,1,23.4,30c.15.47-.25.94-.82,1.11a3.85,3.85,0,0,1-1.07.1c-.2.11-.43,0-.63.09h-.82C19.77,31.45,19.45,31.29,19.15,31.42Z"/><path class="cls-37" d="M10.26,15.63v-.18a2.2,2.2,0,0,0,.63-.91,4.55,4.55,0,0,1,1-1.28.89.89,0,0,1,1.35,0,11.65,11.65,0,0,1,1.33,1.86c.07.11.11.26.25.31h0a3,3,0,0,1,.27.45v.28c-.13,0-.18-.07-.26-.13a.58.58,0,0,1-.11-.15,13.09,13.09,0,0,0-1.52-2.23c-.52-.55-1-.49-1.46.11S11,15,10.51,15.58C10.43,15.63,10.36,15.68,10.26,15.63Z"/><path class="cls-38" d="M8.9,31.51H8.63a.09.09,0,0,1,0-.14,1.66,1.66,0,0,1,.8-.07A8.37,8.37,0,0,0,12,31.06a2,2,0,0,1,1.72-.1,3.35,3.35,0,0,0,1.14.17.41.41,0,0,1,.16,0,3.8,3.8,0,0,0,.58.06c.12,0,.32,0,.24.24a9.4,9.4,0,0,1-1.5,0h-.19c-.16-.12-.37,0-.54-.09-.39,0-.79-.17-1.18,0-.2.12-.44,0-.63.09a13.43,13.43,0,0,1-2.45.09A.53.53,0,0,1,8.9,31.51Z"/><path class="cls-39" d="M22.06,27.43v.18c-.21,0-.24-.16-.3-.28a4.94,4.94,0,0,0-.49-.76,2.51,2.51,0,0,1-.41-.66c-.57-.9-1.14-1.81-1.69-2.73A9.27,9.27,0,0,1,18.49,22c0-.13-.16-.26-.09-.42a.09.09,0,0,1,.12,0c1.07,1.72,2.15,3.44,3.22,5.17A6.36,6.36,0,0,1,22.06,27.43Z"/><path class="cls-37" d="M18.52,21.62h-.09c-.24,0-.28-.19-.37-.34a9.77,9.77,0,0,0-.91-1.39l-.07-.11a17.31,17.31,0,0,0-1.43-2.27.91.91,0,0,1-.11-.16c-.08-.32-.49-.5-.38-.9.38.07.44.44.59.69C16.69,18.62,17.69,20.07,18.52,21.62Z"/><path class="cls-35" d="M8.63,31.42v.09H6.82a10.64,10.64,0,0,0-1.69-.17,15.1,15.1,0,0,0-1.52-.11s-.1-.06-.15-.08A1.07,1.07,0,0,1,4.33,31c1.23.11,2.46.21,3.7.25C8.23,31.3,8.46,31.25,8.63,31.42Z"/><path class="cls-40" d="M14.35,31.42h1.54a1.62,1.62,0,0,1,1.36,0H18.7c-.09.11-.21.09-.33.09H14.68C14.56,31.51,14.43,31.53,14.35,31.42Z"/><path class="cls-41" d="M15.16,16.45c.06.35.42.54.46.91-.24,0-.29-.18-.39-.31a4.17,4.17,0,0,0-.41-.53.46.46,0,0,1-.12-.23.55.55,0,0,1,0-.38.09.09,0,0,1,.12,0l.09.1a.54.54,0,0,0,.27.36Z"/><path class="cls-40" d="M19.15,31.42c.29-.19.61-.05.91-.09C19.77,31.51,19.46,31.38,19.15,31.42Z"/><path class="cls-27" d="M15.07,15.9a.54.54,0,0,1-.27-.45.8.8,0,0,1,.36.45Z"/><path class="cls-40" d="M11.81,31.42c.19-.18.42-.06.63-.09C12.25,31.5,12,31.38,11.81,31.42Z"/><path class="cls-40" d="M20.88,31.33c.19-.18.42-.06.63-.09C21.32,31.41,21.09,31.29,20.88,31.33Z"/><path class="cls-42" d="M15.16,16.36c-.23,0-.28-.17-.27-.36l.18.18Z"/><path class="cls-40" d="M13.62,31.33c.18,0,.39-.08.54.09C14,31.39,13.78,31.49,13.62,31.33Z"/><path class="cls-35" d="M8.9,31.51h.46A.32.32,0,0,1,8.9,31.51Z"/><path class="cls-43" d="M10.26,15.63l.18-.09c.13.21,0,.34-.13.48C9.71,17,9.14,18,8.53,18.9c-.18.33-.38.64-.55,1a.53.53,0,0,1-.12.14c-.07.05-.14.1-.23.06,0-.28.32-.44.27-.73a8.34,8.34,0,0,0,.92-1.41C9.29,17.17,9.78,16.4,10.26,15.63Z"/><path class="cls-44" d="M7.63,20.08,7.81,20c.13.17,0,.32-.07.45-1.16,1.94-2.17,4-3.42,5.85a4.64,4.64,0,0,0-.53,1c-.32.75-.72,1.46-1,2.23s0,1.11.72,1.23,1.58.14,2.37.22a40.28,40.28,0,0,0,4.11.1A5.7,5.7,0,0,0,11.44,31c.22,0,.45-.06.64.12a4.75,4.75,0,0,1-1.79.27c-.55,0-1.11,0-1.66,0-1.53,0-3.06-.16-4.58-.27a5.81,5.81,0,0,0-.59,0c-.69,0-1.14-.36-1.18-.91.12-.17,0-.38.09-.55h0c.07-.14.06-.32.18-.45L2.64,29a2.8,2.8,0,0,0,.27-.64l.1-.18c.22-.13.28-.39.37-.59.38-.9,1-1.69,1.42-2.54a10.51,10.51,0,0,0,1.11-2.13l1.41-2.38C7.41,20.36,7.53,20.22,7.63,20.08Z"/><path class="cls-35" d="M2.91,28.33a.62.62,0,0,1-.27.64A1,1,0,0,1,2.91,28.33Z"/><path class="cls-35" d="M2.37,29.69c0,.19.07.39-.09.55C2.31,30.06,2.21,29.85,2.37,29.69Z"/><path class="cls-35" d="M2.55,29.24a.9.9,0,0,1-.18.45C2.37,29.52,2.34,29.33,2.55,29.24Z"/><path class="cls-45" d="M21.33,26.52c.38.27.44.76.73,1.09l.81,1.72a2,2,0,0,1,.14.34.86.86,0,0,1-.69,1.22,8.62,8.62,0,0,1-1.43.19c-1.33.12-2.67.21-4,.25a1.36,1.36,0,0,1-.49,0,.12.12,0,0,1-.07-.13c.19-.21.45-.13.68-.13a35,35,0,0,0,5-.42c.66-.1.83-.4.59-1a5,5,0,0,0-.35-.83.75.75,0,0,1-.07-.12,1.68,1.68,0,0,0-.22-.47,1.89,1.89,0,0,1-.39-.74C21.59,27.11,21.19,26.89,21.33,26.52Z"/><path class="cls-46" d="M16.34,31.24A50.32,50.32,0,0,0,21.69,31a2.68,2.68,0,0,0,.79-.19.69.69,0,0,0,.49-.68c0-.26-.09-.5-.1-.76a1,1,0,0,1,.22,1.13c-.21.49-.74.55-1.2.59-1.46.11-2.92.31-4.4.28a.27.27,0,0,0-.24.09H15.89c-.27-.24-.64,0-.91-.18A1.62,1.62,0,0,1,16.34,31.24Z"/><path class="cls-42" d="M8.45,18.9c.33-.56.66-1.11,1-1.67a18,18,0,0,0,1-1.69c.35-.53.68-1.06,1-1.59.67-1,1.21-1.07,2-.15a10.07,10.07,0,0,1,1.36,2.1h-.09c-.28,0-.34-.22-.44-.38a9.58,9.58,0,0,0-1.2-1.69c-.49-.47-.79-.44-1.23.09A18.89,18.89,0,0,0,10.5,16c-.6.92-1.16,1.87-1.7,2.82-.1.11-.19.21-.35.19A.07.07,0,0,1,8.45,18.9Z"/><path class="cls-47" d="M12.08,31.15h-.64c.16-.32.54-.24.76-.43s.4-.06.17-.31c-.13-.05-.29-.08-.34-.21a6.19,6.19,0,0,0-1.42-1.68,1.62,1.62,0,0,1-.18-.19c-.08-.1-.17-.21-.1-.33s.22-.13.36-.08a16.51,16.51,0,0,1,2,2c.25.29.34.27.64-.06a16.71,16.71,0,0,1,1.83-1.93c.35,0,.42.16.23.43a5.16,5.16,0,0,1-.56.59,4.63,4.63,0,0,0-1.06,1.27c0,.12-.18.16-.27.24,0,.37.31.34.5.43a3.61,3.61,0,0,0,.65.15c.1,0,.25,0,.23.2A4.94,4.94,0,0,1,13.32,31C12.87,30.77,12.49,31.05,12.08,31.15Z"/><path class="cls-48" d="M14.89,31.24c-.39-.21-.87-.12-1.25-.37-.2-.13-.42-.24-.29-.54a2.51,2.51,0,0,0,.65.28,6,6,0,0,0,1.87.36c.16.06.35,0,.47.18v.09H14.89Z"/><path class="cls-49" d="M21.33,26.52c.05.33.35.56.36.91-.33,0-.31-.35-.5-.5a2.2,2.2,0,0,1-.21-.32,2.36,2.36,0,0,0-.58-.8,5.4,5.4,0,0,1-1.3-1.93c-.24-.51-.56-1-.83-1.49-.37-.78-.88-1.47-1.28-2.22-.07-.14-.18-.25-.18-.41a.29.29,0,0,1,.05-.13c.19-.09.21.09.3.18h0c.58.85,1.09,1.75,1.59,2.66.16.29.36.56.53.84.43.63.74,1.33,1.18,2,.16.22.36.4.51.62S21.28,26.27,21.33,26.52Z"/><path class="cls-41" d="M19.24,23.34c-.73-1.15-1.45-2.32-2.08-3.53a4.69,4.69,0,0,1,.94,1.34l.33.47a14.08,14.08,0,0,0,.81,1.54A.11.11,0,0,1,19.24,23.34Z"/><path class="cls-50" d="M19.24,23.34v-.18L21,25.88a4.27,4.27,0,0,1-1.18-1.55C19.59,24,19.42,23.67,19.24,23.34Z"/><path class="cls-51" d="M16.89,19.62v.09c-.26,0-.31-.19-.42-.33A12.27,12.27,0,0,0,15.54,18a9,9,0,0,1-.74-1.27.3.3,0,0,1,.09-.25c.33.23.4.67.73.91l.09.09c.24.55.65,1,.93,1.52A1.08,1.08,0,0,1,16.89,19.62Z"/><path class="cls-41" d="M16.89,19.62a12.92,12.92,0,0,0-1-1.64.81.81,0,0,1-.2-.53,18,18,0,0,1,1.42,2.14.69.69,0,0,1,0,.22Z"/><path class="cls-51" d="M8.72,18.81a21.48,21.48,0,0,1,1.22-2.14c.44-.75.93-1.46,1.37-2.21a4.44,4.44,0,0,1,.66-.84.65.65,0,0,1,1,0,8.06,8.06,0,0,1,1.33,1.8,1.23,1.23,0,0,0,.38.49l.09.37c-.26,0-.33-.17-.43-.32-.42-.6-.79-1.22-1.23-1.8s-.82-.55-1.25,0a6,6,0,0,0-.45.67,3.28,3.28,0,0,1-.2.31c-.08.11-.13.24-.2.35l-.1.15a1.67,1.67,0,0,0-.25.4,4.21,4.21,0,0,1-.28.45,3.26,3.26,0,0,0-.24.4l-.06.1a2,2,0,0,0-.24.4.36.36,0,0,1-.07.1c-.31.38-.49.84-.77,1.25-.08.11-.1.33-.33.27A.12.12,0,0,1,8.72,18.81Z"/><path class="cls-52" d="M11.35,14.82a2.64,2.64,0,0,1,.61-.93.73.73,0,0,1,1.19.09c.46.65.9,1.31,1.35,2a.84.84,0,0,0,.3.32.19.19,0,0,0,.09.18v.27c-.24,0-.3-.17-.39-.31-.37-.57-.73-1.14-1.11-1.71-.56-.82-1-1.13-1.71,0a.43.43,0,0,1-.09.1A.22.22,0,0,1,11.35,14.82Z"/><path class="cls-53" d="M8.72,18.81V19c0,.28-.27.41-.26.67a.49.49,0,0,1-.08.18,3.8,3.8,0,0,0-.56.87C7.12,22,6.3,23.23,5.68,24.57a10.44,10.44,0,0,1-1.15,1.71c-.3.28-.31.77-.68,1a.21.21,0,0,1-.12-.05,2.07,2.07,0,0,1,.44-.92c1.3-2,2.34-4.07,3.56-6.08A1,1,0,0,0,7.81,20l.09-.09c.19-.31.36-.62.55-.91Z"/><path class="cls-44" d="M8.45,19a2.09,2.09,0,0,1-.55.91,2.88,2.88,0,0,1,.55-1Z"/><path class="cls-54" d="M3.73,27.24h.09c.14.15.05.3,0,.45a3,3,0,0,0-.25.62,1.79,1.79,0,0,1-.13.32,1.6,1.6,0,0,0-.25.7.93.93,0,0,0,0,.13c-.2.69,0,.94.7,1.07,1,.16,1.91.24,2.87.32.69.05,1.38.07,2.08.07a2.27,2.27,0,0,1,.45,0c.23.11.5,0,.73.15a.09.09,0,0,1,0,.13c-.75,0-1.51,0-2.26,0a41.09,41.09,0,0,1-4.44-.36.81.81,0,0,1-.67-1.13,13.34,13.34,0,0,1,.89-2.06C3.58,27.54,3.66,27.39,3.73,27.24Z"/><path class="cls-55" d="M10,31.24v-.09c.18-.3.46-.19.72-.19a2.33,2.33,0,0,0,1.46-.48.89.89,0,0,1,.27-.15c.32,0,.29.13.11.3a3.76,3.76,0,0,1-1.11.52A5.4,5.4,0,0,1,10,31.24Z"/><path class="cls-56" d="M16.34,31.15c-.15,0-.33.06-.45-.09a.46.46,0,0,1,.37-.13,39.83,39.83,0,0,0,5.34-.38c.84-.08,1-.37.77-1.18,0-.09-.07-.17-.1-.25s-.18-.34,0-.51a2.61,2.61,0,0,1,.59,1.55.54.54,0,0,1-.53.53c-.6.09-1.21.23-1.82.26A35.75,35.75,0,0,1,16.34,31.15Z"/><path class="cls-57" d="M22.24,28.61l.09.45-.07,0a.27.27,0,0,1-.18-.1c-.3-.59-.54-1.21-.85-1.81a.24.24,0,0,1,0-.29c.25.1.21.45.45.55a2,2,0,0,0,.37.72c.07.15.1.31.18.46Z"/><path class="cls-56" d="M22.24,28.61a.51.51,0,0,1-.18-.46A.56.56,0,0,1,22.24,28.61Z"/><path class="cls-58" d="M12.44,30.33a.27.27,0,0,1-.18.18L12,30.37c-.28-.15-.41-.45-.67-.61-.9-1-1.91-1.88-2.87-2.81a.8.8,0,0,1-.33-.75l0-.13a.47.47,0,0,1,.16-.21.14.14,0,0,1,.12,0,4.91,4.91,0,0,0,1.72,1.64c0,.4.32.19.51.23h.57a1,1,0,0,1,.6.1c.05.21-.12.19-.23.24s-.27,0-.4,0a.58.58,0,0,1-.44-.12c-.11,0-.27-.06-.32.09s.09.18.16.25l1,1a1.68,1.68,0,0,1,.55.8C12.12,30.28,12.33,30.24,12.44,30.33Z"/><path class="cls-59" d="M10.72,28h.45a9.94,9.94,0,0,1,1.56,1.48c.21.22.31.19.5,0,.38-.4.7-.86,1.12-1.23a1.23,1.23,0,0,1,.42-.33.37.37,0,0,1,.39.08c-.33.38-.66.76-1,1.13l-1,1.06c-.12.12-.24.22-.38.05a24.93,24.93,0,0,0-2.09-2.15S10.72,28,10.72,28Z"/><path class="cls-60" d="M15.16,28h-.45a.15.15,0,0,1-.19,0,.15.15,0,0,1,0-.13l.12-.07a1.33,1.33,0,0,1,.28,0h.48l.27,0a2.23,2.23,0,0,1,.31.12c.24.23,0,.39-.1.53-.68.61-1.24,1.34-1.86,2-.07.07-.08.17-.13.24a.65.65,0,0,1-.54-.36.37.37,0,0,0,.42-.31,1.65,1.65,0,0,1,.51-.67c.34-.34.69-.68,1-1C15.5,28.12,15.49,28,15.16,28Z"/><path class="cls-61" d="M13.89,30.69c0-.12-.15-.21,0-.35.75-.64,1.31-1.49,2.06-2.13.09-.07.05-.16,0-.24a.24.24,0,0,1,.25-.06c.26.09.27.25.1.44a5.32,5.32,0,0,1-.47.48,4.51,4.51,0,0,0-1.15,1.53c0,.29.21.25.36.3.38.15.82.06,1.18.28a.09.09,0,0,1,0,.12h-.36A4.59,4.59,0,0,1,13.89,30.69Z"/><path class="cls-62" d="M21.24,26.88c.26.72.7,1.35.91,2.09.39.59.26,1-.37,1.35a3.32,3.32,0,0,1-1.14.37c-.84.11-1.67.2-2.51.25a1.7,1.7,0,0,1-.45,0,.14.14,0,0,1-.09-.09c.08-.26.31-.27.51-.26a4.5,4.5,0,0,0,1.69-.22,6,6,0,0,0,1.42-.55l.18-.13c.49-.29.5-.29.33-.85A6.91,6.91,0,0,0,21,27.19a.91.91,0,0,1-.17-.42.2.2,0,0,1,.09-.17.1.1,0,0,1,.13,0Z"/><path class="cls-63" d="M21.06,26.61H21a2.94,2.94,0,0,1-.64-.63,1.55,1.55,0,0,0-1.08-.56.57.57,0,0,1-.25-.21,6.11,6.11,0,0,1-.54-.88.36.36,0,0,1,0-.25c.27-.14.28-.34.17-.6a6.52,6.52,0,0,1-.36-1,.21.21,0,0,1,.08-.17,12.5,12.5,0,0,1,1.15,2,4.27,4.27,0,0,0,.92,1.25A2.11,2.11,0,0,1,21.06,26.61Z"/><path class="cls-64" d="M18.34,22.35v.18c-.27,0-.26-.3-.43-.41-.38-.39-.48-.94-.82-1.35L17,20.6c-.38-.76-.9-1.45-1.27-2.21-.08-.16-.24-.29-.1-.49a9.87,9.87,0,0,1,.91,1.37c.11.15.17.35.36.44.37.67.74,1.34,1.14,2C18.16,21.91,18.23,22.13,18.34,22.35Z"/><path class="cls-65" d="M15.62,17.9a13.12,13.12,0,0,0,.82,1.52,3.83,3.83,0,0,1,.63,1.2c-.1.05-.17,0-.24-.06a11.35,11.35,0,0,0-.92-1.44l-1.18-1.91c-.51-.81-1-1.64-1.54-2.4a2,2,0,0,0-.55-.53.35.35,0,0,0-.22-.06c-.31.12-.47.4-.67.63-.07.06-.14.11-.24.06a.15.15,0,0,1,0-.18c.13-.19.24-.39.38-.56A.66.66,0,0,1,13,14.09a11.92,11.92,0,0,1,1.27,1.8,3.25,3.25,0,0,0,.6.83Z"/><path class="cls-66" d="M11.53,14.73v.18a6.38,6.38,0,0,1-.86,1.66c-.53,1-1.16,1.86-1.69,2.82a24.35,24.35,0,0,0-1.26,2.16c-.08.15-.15.33-.34.39a.17.17,0,0,1-.12,0c0-.34.21-.57.34-.84a9.91,9.91,0,0,1,.76-1.25v-.19c.58-.69.94-1.53,1.45-2.26.11-.14.16-.32.27-.46h0c.12-.13.16-.31.27-.45a.82.82,0,0,1,.28-.45c.11-.14.16-.32.27-.46l.09-.09a1.22,1.22,0,0,0,.18-.36l.18-.27Z"/><path class="cls-52" d="M9.81,17.36a8.39,8.39,0,0,1-1.45,2.26c0-.27.24-.42.36-.63.26-.42.52-.84.77-1.27A.75.75,0,0,1,9.81,17.36Z"/><path class="cls-52" d="M10.35,16.45a.54.54,0,0,1-.27.45A.56.56,0,0,1,10.35,16.45Z"/><path class="cls-52" d="M10.9,15.54a.57.57,0,0,1-.27.46A.57.57,0,0,1,10.9,15.54Z"/><path class="cls-52" d="M10.08,16.9a.57.57,0,0,1-.27.46A.57.57,0,0,1,10.08,16.9Z"/><path class="cls-52" d="M11.17,15.09a.32.32,0,0,1-.18.36A.47.47,0,0,1,11.17,15.09Z"/><path class="cls-67" d="M8.36,19.81a8.21,8.21,0,0,1-.75,1.36c-.11.24-.24.48-.34.72a2,2,0,0,1-.43,1,7.1,7.1,0,0,0-.6,1.16A5.49,5.49,0,0,1,5,26a1.87,1.87,0,0,0-.24.38,3.79,3.79,0,0,1-.2.34c-.17.14-.11.5-.45.47-.05-.4.25-.66.39-1a1.68,1.68,0,0,1,.3-.45A16.18,16.18,0,0,0,6.3,23.12c.54-.94,1.08-1.9,1.65-2.83C8.06,20.12,8,19.81,8.36,19.81Z"/><path class="cls-68" d="M4.46,26.25c0,.36-.38.61-.37,1s-.21.55-.29.83c-.1.1-.14.29-.34.26,0-.4.38-.68.36-1.08C4.11,27,4.12,26.5,4.46,26.25Z"/><path class="cls-57" d="M3.46,28.33l.27-.27c.17.23,0,.42,0,.63s-.32.65-.18,1c.07.13-.14.28,0,.4a.81.81,0,0,1,.29.12,2.39,2.39,0,0,0,1.05.22,30.09,30.09,0,0,0,3.28.32c.2.14.55-.08.66.28a30.08,30.08,0,0,1-5-.4c-.86-.12-1.11-.51-.69-1.42.1-.2.15-.43.27-.63Z"/><path class="cls-69" d="M8.81,31.06c-.17-.21-.46,0-.63-.19a.46.46,0,0,1,.34-.12,10.87,10.87,0,0,0,1.89-.08.87.87,0,0,0,.71-.41.25.25,0,0,1,.26-.09.27.27,0,0,1,.12.06c.15.39.1.46-.49.71l-.14,0a8.6,8.6,0,0,1-1.6.1Z"/><path class="cls-70" d="M9.27,31.06,11,30.87c0,.16-.11.14-.18.19a1.75,1.75,0,0,0-.82.09C9.75,31.11,9.49,31.24,9.27,31.06Z"/><path class="cls-68" d="M3.37,28.61a.93.93,0,0,1-.27.63C3.13,29,3.13,28.75,3.37,28.61Z"/><path class="cls-71" d="M10.81,31.06l.18-.19h0a1.57,1.57,0,0,0,.94-.51l.06,0c.13,0,.26,0,.27.18A2,2,0,0,1,10.81,31.06Z"/><path class="cls-57" d="M17.61,30.87a21.37,21.37,0,0,0,3.09-.27,3.79,3.79,0,0,0,1.19-.3.56.56,0,0,0,.43-.67c0-.19-.09-.38,0-.57h0c.37.57.35,1.1,0,1.42a.94.94,0,0,1-.63.18c-1.05.09-2.09.25-3.14.32-.77.05-1.53.07-2.3.08V31a.26.26,0,0,1,.13-.08A3.18,3.18,0,0,1,17.61,30.87Z"/><path class="cls-72" d="M22.33,29.06a2.17,2.17,0,0,0,0,.36c.13.75,0,.89-.67,1.08a3,3,0,0,1-1,.1,8.25,8.25,0,0,0,1.05-.38c.47-.18.53-.49.48-.91a2.09,2.09,0,0,0-.08-.34Z"/><path class="cls-73" d="M8.18,26.07v.09c-.1.07,0,.28-.18.3-.36-.09-.55-.4-.8-.63-.09-.08-.15-.19-.24-.27-.41-.39-.41-.75.09-1a6.56,6.56,0,0,0,1.42-1.36c.67-.71,1.37-1.39,2.06-2.08.15-.15.33-.35.57-.1a2.2,2.2,0,0,1-.62,1.11.85.85,0,0,0-.37.24c-.77.77-1.54,1.53-2.3,2.31-.53.53-.51.58.05,1C8,25.78,8.2,25.84,8.18,26.07Z"/><path class="cls-61" d="M8,26.43l.19-.27a.76.76,0,0,0,.29.71c.8.74,1.58,1.5,2.37,2.27.18.17.34.37.51.55s.23.34.09.55h-.27a.21.21,0,0,1-.25,0,4.43,4.43,0,0,0-1.58-2.09c-.45-.38-.84-.82-1.28-1.21a.43.43,0,0,1-.14-.45A.23.23,0,0,1,8,26.43Z"/><path class="cls-74" d="M8.18,26.07l-.5-.39c-.49-.36-.52-.52-.1-1,.84-.87,1.7-1.71,2.55-2.56.09-.09.18-.17.31-.09a.17.17,0,0,1,0,.12,2.27,2.27,0,0,1-.27.54,1.45,1.45,0,0,1-.22.21,1,1,0,0,0-.41.28c-.48.5-1,1-1.47,1.48s-.46.46,0,.9c.08.08.22.13.17.29A.19.19,0,0,1,8.18,26.07Z"/><path class="cls-75" d="M14.53,28h.18L13.1,29.74c-.07.07-.14.16-.21.06-.5-.68-1.21-1.16-1.72-1.83h.36a7.11,7.11,0,0,1,1,.94c.35.39.41.39.78,0a10.42,10.42,0,0,1,1.08-1A.2.2,0,0,1,14.53,28Z"/><path class="cls-76" d="M14.35,28c-.42.43-.84.86-1.25,1.3-.15.15-.27.16-.41,0A10.17,10.17,0,0,1,11.53,28c.1,0,.21,0,.28-.09a.2.2,0,0,1,.12-.08,1.51,1.51,0,0,1,.67,0,.32.32,0,0,1,.12.08c0,.21-.17.18-.3.21a1.56,1.56,0,0,1-.37,0,1.87,1.87,0,0,1,.52.39c.42.4.42.4.85,0A2.22,2.22,0,0,1,14,27.9.29.29,0,0,1,14.35,28Z"/><path class="cls-77" d="M8.27,25.89c-.83-.68-.83-.68-.07-1.44.47-.46.94-.93,1.39-1.41a.44.44,0,0,1,.39-.15c0,.37-.19.6-.42.84A.67.67,0,0,0,9,24a6.76,6.76,0,0,1-.71.8c-.22.19-.26.39,0,.6a.51.51,0,0,1,.17.3.2.2,0,0,1-.06.18Z"/><path class="cls-78" d="M11.9,27.88h-.73a1.8,1.8,0,0,1-.78-.81.45.45,0,0,1,0-.2.32.32,0,0,1,.24-.22A3.48,3.48,0,0,1,11.9,27.88Z"/><path class="cls-79" d="M8.36,25.88v-.17a.11.11,0,0,1,.12,0,5.66,5.66,0,0,0,1.71,1.63.17.17,0,0,1,0,.18.09.09,0,0,1-.12,0,.25.25,0,0,1-.35,0c-.39-.37-.78-.73-1.18-1.08A.58.58,0,0,1,8.36,25.88Z"/><path class="cls-80" d="M10.17,27.51v-.17a.36.36,0,0,1,.07-.22c.06-.05.11-.11.2-.06l.73.82h-.64C10.39,27.78,10.21,27.72,10.17,27.51Z"/><path class="cls-71" d="M11.44,30.24a1.67,1.67,0,0,1-.09-.55c.27.16.42.44.64.64h0c-.22.16-.38,0-.55-.09Z"/><path class="cls-81" d="M10.17,27.51a.92.92,0,0,1,.36.37H10c-.09-.15.11-.23.07-.36Z"/><path class="cls-82" d="M15.43,27.88h-.54c-.06-.2.11-.3.22-.41.38-.39.78-.78,1.17-1.17a1.34,1.34,0,0,0,.32-.43c.09-.1.25-.06.34-.17a1,1,0,0,1,.07-.15c.37-.54.37-.61-.16-1-.35-.27-.62-.65-1-.89a3.11,3.11,0,0,1-.61-.9c-.06-.13-.19-.25-.1-.42a.34.34,0,0,1,.45.1c.7.7,1.45,1.36,2.13,2.09.49.54.49.6,0,1.1s-1.17,1.25-1.77,1.86A1.88,1.88,0,0,1,15.43,27.88Z"/><path class="cls-81" d="M15.43,27.88c.79-.83,1.57-1.67,2.37-2.49.18-.19.25-.3,0-.54A13.16,13.16,0,0,0,16,23.07c-.3-.23-.41-.69-.88-.72a1,1,0,0,1-.57-.89c.22-.12.37,0,.5.17l3.14,3.13a.42.42,0,0,1,0,.67c-.82.82-1.6,1.68-2.48,2.44h-.34Z"/><path class="cls-83" d="M14.62,27.88h-.09c-.13.08-.27,0-.41,0-.18-.31.1-.47.26-.61.49-.48,1-1,1.43-1.48a.5.5,0,0,1,.4,0,.23.23,0,0,1,.06.4A12.33,12.33,0,0,1,14.62,27.88Z"/><path class="cls-84" d="M14.62,27.88l1.45-1.59c.1-.11.31-.19.18-.4a.24.24,0,0,1,.36,0c.13.21-.07.29-.18.4l-1.54,1.59Z"/><path class="cls-85" d="M16.25,28H16c-.1,0-.21,0-.27-.09h0a.73.73,0,0,1,.35-.12h.37c.15,0,.3,0,.45,0a.87.87,0,0,1,.45.1.12.12,0,0,1,0,.14.83.83,0,0,1-.51.1H16.6A1.57,1.57,0,0,1,16.25,28Z"/><path class="cls-86" d="M14.07,27.88h.46V28H14a.68.68,0,0,1-.44.12c-.13,0-.28,0-.3-.21a.42.42,0,0,1,.14-.09A.77.77,0,0,1,14.07,27.88Z"/><path class="cls-87" d="M16.25,28h.36c.2.13.09.26,0,.38s-.36.37-.54.55a2.34,2.34,0,0,0-.83,1.26.38.38,0,0,1-.16.22l-.13,0a.36.36,0,0,1-.33-.09,5.73,5.73,0,0,1,1.57-2C16.3,28.23,16.47,28.13,16.25,28Z"/><path class="cls-88" d="M14.62,30.33H15c.28.12.56.2.85.3s.45.05.51.33h-.09a6.08,6.08,0,0,1-1.52-.28C14.62,30.63,14.26,30.57,14.62,30.33Z"/><path class="cls-89" d="M20.88,26.7A9,9,0,0,1,22,29.26c.05.24.25.59-.3.4,0,0-.13.07-.18.11a2,2,0,0,1-1.35.48c.07.07.16.13.15.17s-.17.08-.27.09l-2.4.27a1,1,0,0,1-.73-.07.12.12,0,0,1,0-.14,10.92,10.92,0,0,1,1.26-.18,2.64,2.64,0,0,0,.47,0c-.09,0-.26,0-.28-.12s.16-.16.27-.16a8.7,8.7,0,0,0,.89-.15,2.27,2.27,0,0,0,1.54-.86c.14-.18.3-.25.49,0A4.57,4.57,0,0,0,20.72,27a.53.53,0,0,1,0-.25.11.11,0,0,1,.09-.08A.19.19,0,0,1,20.88,26.7Z"/><path class="cls-90" d="M20.88,26.7h-.09c-.22-.18-.4-.39-.61-.58a.82.82,0,0,0-.67-.27.51.51,0,0,1-.32-.39.17.17,0,0,1,0-.12c.91,0,1.28.67,1.73,1.27Z"/><path class="cls-91" d="M16.89,30.69a2,2,0,0,1,.72.09v.09a4.51,4.51,0,0,1-1.27.09c-.15-.15-.42-.06-.54-.27a.3.3,0,0,1,.17-.12A1.39,1.39,0,0,1,16.89,30.69Z"/><path class="cls-92" d="M18.52,24.07v.27c-.27,0-.43-.16-.59-.31a3,3,0,0,0-.71-.52c-1-.81-1.83-1.78-2.76-2.67a1.92,1.92,0,0,0-.52-.42,1.3,1.3,0,0,1-.47-.78.22.22,0,0,1,0-.12c.28-.1.46.11.62.26.89.88,1.78,1.75,2.7,2.59a5.9,5.9,0,0,0,1.44,1.38C18.43,23.81,18.47,23.94,18.52,24.07Z"/><path class="cls-93" d="M17.25,23.43c.54.15.79.69,1.27.91.29.2.31.58.54.82a.65.65,0,0,1-.2.44c-.75.66-1.41,1.4-2.13,2.08a3.13,3.13,0,0,1-.3.2h-.36c-.05-.24.15-.34.28-.47.67-.68,1.34-1.36,2-2,.21-.21.3-.35,0-.6s-.65-.67-1-1C17.31,23.69,17.19,23.6,17.25,23.43Z"/><path class="cls-94" d="M16.43,27.88a26.62,26.62,0,0,1,2.19-2.19c.18-.17.21-.44.44-.53l.18.18v.09c0,.26-.25.4-.41.57a13.79,13.79,0,0,1-1.94,1.88Z"/><path class="cls-95" d="M18.52,24.07l-.27-.27c-.08-.12-.19-.21-.14-.37a.83.83,0,0,0-.07-.82c-.08-.17-.23-.33-.07-.54.22.08.2.34.37.46.16.41.33.83.49,1.25S18.76,24.12,18.52,24.07Z"/><path class="cls-96" d="M18,22.07c0,.33.28.52.32.81s.19.44-.14.56-.33-.38-.52-.53a.41.41,0,0,1-.08-.38,1,1,0,0,0-.11-.85c-.13-.31-.44-.57-.28-1C17.54,21.1,17.62,21.67,18,22.07Z"/><path class="cls-97" d="M17.16,20.71a5.47,5.47,0,0,0,.43,1c.11.24.38.52,0,.79-.43-.14-.48-.53-.6-.88a.78.78,0,0,0-.08-.68c-.08-.14-.19-.28,0-.44l.18.09Z"/><path class="cls-98" d="M8.9,19.35A15.14,15.14,0,0,1,10,17.49c.49-.87,1-1.72,1.53-2.58l.18-.09,0,0a.31.31,0,0,1,0,.19,10.88,10.88,0,0,1-.8,1.41c-.27.45-.54.9-.8,1.35-.1.2-.27.37-.39.56a1,1,0,0,0-.2.36,6.13,6.13,0,0,1-.46.74c-.08.06-.15.11-.25.06A.17.17,0,0,1,8.9,19.35Z"/><path class="cls-99" d="M14.8,17.17A17.83,17.83,0,0,1,16,19.08c.19.36.43.69.59,1.06a.79.79,0,0,1,.08.73c-.36.05-.3-.33-.47-.47A7.67,7.67,0,0,1,15.42,19a1.48,1.48,0,0,0-.28-.78,2.39,2.39,0,0,1-.41-.92A.21.21,0,0,1,14.8,17.17Z"/><path class="cls-100" d="M14.8,17.17v.1c-.24,0-.29-.16-.39-.3-.24-.33-.38-.74-.75-1a5.18,5.18,0,0,1-.74-1.12c-.1-.23-.34-.4-.29-.69.51.19.74.68,1,1.09A16.08,16.08,0,0,1,14.8,17.17Z"/><path class="cls-101" d="M16.61,20.89a2.59,2.59,0,0,0-.48-1.4c-.07-.14-.17-.25-.15-.41a4.67,4.67,0,0,1,.91,1.45c0,.18.1.29.16.44s.28.43,0,.65c-.2,0-.24-.16-.35-.25S16.48,21.09,16.61,20.89Z"/><path class="cls-102" d="M12.63,14.18l.35.64a.73.73,0,0,1-.72-.14.33.33,0,0,1,0-.33.82.82,0,0,1,.2-.26A.21.21,0,0,1,12.63,14.18Z"/><path class="cls-98" d="M12.44,14.09l-.09.27c-.24.12-.28.5-.64.46h0A1.23,1.23,0,0,1,12.44,14.09Z"/><path class="cls-103" d="M4.64,26.43c.08-.47.49-.71.75-1.05a3,3,0,0,0,.49-.78,19.78,19.78,0,0,1,1.39-2.71h.09c.14.22,0,.4-.1.58A5.26,5.26,0,0,0,6.63,24s0,.06,0,0,0,0,0-.05.14-.11.21,0a1.42,1.42,0,0,1-.31.77c-.11.15-.19.33-.29.48s-.15.31-.32.37a1.67,1.67,0,0,0-.92.6C4.91,26.28,4.86,26.48,4.64,26.43Z"/><path class="cls-104" d="M6.82,24c-.25,0-.33,0-.26-.29a7.11,7.11,0,0,1,.57-1.22,2.42,2.42,0,0,0,.23-.58c.36-.61.75-1.21,1.07-1.84a4.28,4.28,0,0,1,.47-.7v.18c0,.49-.35.82-.55,1.22a13.57,13.57,0,0,0-.81,1.56.49.49,0,0,0,0,.52.86.86,0,0,1-.16.54C7.13,23.55,7.15,23.91,6.82,24Z"/><path class="cls-105" d="M3.46,29.79a.35.35,0,0,1-.11-.46,6.89,6.89,0,0,0,.38-1.27c0-.32.35-.5.36-.82l.37-.54c.08,0,.1,0,.11.09s-.1.32-.12.48a.61.61,0,0,1,0,.12,3.54,3.54,0,0,0-.5,1.73.4.4,0,0,1,0,.19,2.59,2.59,0,0,1-.3.48A.11.11,0,0,1,3.46,29.79Z"/><path class="cls-106" d="M4.55,26.79l-.09-.09.18-.27c.33-.31.55-.74,1-.9a.31.31,0,0,1,.25,0,.16.16,0,0,1,0,.11.76.76,0,0,1-.21.37.28.28,0,0,1-.12,0c-.3,0-.46.23-.64.43s-.19.31-.38.34Z"/><path class="cls-107" d="M3.73,30.24H3.36c.07-.26.29-.18.47-.21H5.31A2,2,0,0,0,6,30a1.26,1.26,0,0,1,.51-.06c.19.1.56,0,.5.39a2,2,0,0,1-.81,0c.69.06,1.38.07,2.07.13.27.11.57,0,.83.14.08.27-.16.19-.27.26H8.48a15.69,15.69,0,0,1-3.61-.42C4.5,30.31,4.08,30.48,3.73,30.24Z"/><path class="cls-108" d="M3.73,30.24a7.3,7.3,0,0,1,2.41.31,17.72,17.72,0,0,0,2.4.23s0,0,0,.06,0,0,0,0H8.18a35.79,35.79,0,0,1-4.13-.37C3.9,30.49,3.75,30.43,3.73,30.24Z"/><path class="cls-109" d="M3.82,30.15c-.15,0-.33-.06-.46.08-.2-.2.07-.3.1-.44h.09C3.79,29.79,4,29.85,3.82,30.15Z"/><path class="cls-103" d="M8.54,30.87v-.09h.27a8.86,8.86,0,0,1,1.12-.22c.22,0,.45-.08.52-.35a.4.4,0,0,1,.19-.07.37.37,0,0,1,.26.1h.27c.06.44-.28.48-.56.53A10.23,10.23,0,0,1,8.54,30.87Z"/><path class="cls-70" d="M11.44,30.24l.55.09c-.16.51-.57.54-1,.54C11.15,30.67,11.69,30.74,11.44,30.24Z"/><path class="cls-110" d="M6.18,25.16l.27-.46c.92-1,1.94-1.86,2.82-2.88a17.07,17.07,0,0,1,1.33-1.36c.51-.52,1-1,1.49-1.59a.73.73,0,0,1,.61-.33.34.34,0,0,1,.12.06.38.38,0,0,1,.13.3,8.44,8.44,0,0,1-.92,1,4.75,4.75,0,0,0-.56.64c-.12.18-.17.4-.4.47-.24-.11-.37.06-.5.2-.68.72-1.44,1.37-2.07,2.15-.31.36-.67.68-1,1s-.58.29-.74.6c0,.1-.18.23,0,.32.51.27.76.83,1.24,1.14v.09c-.07.07,0,.21-.18.22s-.36-.12-.51-.25a6.75,6.75,0,0,0-.95-.9A.44.44,0,0,1,6.18,25.16Z"/><path class="cls-111" d="M11.07,21c.08-.19.25-.32.28-.54s.23,0,.32.11a1,1,0,0,1,.13.22c0,.09.06.17,0,.25a2.9,2.9,0,0,0-1,.86c-.09.14-.17.34-.41.28v-.09Z"/><path class="cls-112" d="M7.81,26.7,8,26.52a.47.47,0,0,0,.17.43c.68.61,1.34,1.24,2,1.88a3.57,3.57,0,0,1,.69.94.65.65,0,0,1,.05.47h-.27c-.07-.06-.16-.1-.2-.18a8.68,8.68,0,0,0-2-2.2,6.54,6.54,0,0,1-.68-.71.48.48,0,0,1,0-.27A.31.31,0,0,1,7.81,26.7Z"/><path class="cls-113" d="M9.53,23.7l.45-.81c0-.11.07-.18.18-.18a9.26,9.26,0,0,1,1.17-1.25c.18-.18.39-.35.68-.21a.43.43,0,0,1,.09.1.17.17,0,0,1,0,.12c-.57.52-1.1,1.08-1.63,1.63a6.38,6.38,0,0,0-.72.75.23.23,0,0,1-.3.13C9.37,23.85,9.41,23.77,9.53,23.7Z"/><path class="cls-114" d="M12,21.35c-.26-.15-.42,0-.59.17a13.94,13.94,0,0,1-1.24,1.19,1.25,1.25,0,0,1,.28-.55c.41-.27.54-.8,1-1A.55.55,0,0,1,11.8,21a.21.21,0,0,1,.16.08C12,21.15,12.08,21.24,12,21.35Z"/><path class="cls-115" d="M13.35,27.88h-.09a.39.39,0,0,1-.55,0h-.09a5.49,5.49,0,0,1-1.76-1.7.28.28,0,0,1,0-.13.29.29,0,0,1,.22-.21c.36.09.54.41.79.64s.51.51.77.76.37.23.59,0c.4-.5.89-.93,1.34-1.39a.59.59,0,0,1,.47,0,.21.21,0,0,1,0,.35A15.07,15.07,0,0,1,13.35,27.88Z"/><path class="cls-116" d="M10.9,26.16a19.94,19.94,0,0,0,1.72,1.72H11.9L10.62,26.7a.19.19,0,0,1,0-.1.65.65,0,0,1,.06-.24C10.68,26.24,10.75,26.15,10.9,26.16Z"/><path class="cls-117" d="M13.53,28H14a.41.41,0,0,1-.07.11c-.92,1-1,1-1.95-.06.12-.1.26,0,.39-.05s.3.46.6.4S13.31,28.06,13.53,28Z"/><path class="cls-118" d="M13.53,28l0,.08c-.6.68-.62.68-1.14-.08.12,0,.26,0,.36-.09h.55C13.32,28,13.43,28,13.53,28Z"/><path class="cls-119" d="M9.53,23.7,9.44,24c0,.25-.21.37-.31.57a.8.8,0,0,1-.13.13c-.25.19-.57.35-.39.76a.24.24,0,0,1-.16.26H8.36c-.49-.63-.49-.62.07-1.22q.36-.37.69-.78C9.27,23.52,9.39,23.59,9.53,23.7Z"/><path class="cls-76" d="M9,24.61l.09-.08c.87-.89,1.74-1.77,2.62-2.64.14-.13.26-.31.48-.32a.25.25,0,0,1,.18.31c-.79.83-1.61,1.62-2.42,2.43s-.79.8,0,1.59a9.22,9.22,0,0,1,.69.71v.09l-.18.18a.08.08,0,0,1-.08,0,7.92,7.92,0,0,1-1.71-1.66C8.63,25,8.82,24.79,9,24.61Z"/><path class="cls-120" d="M8.72,25.25c.51.61,1.16,1.07,1.72,1.63v.18l-.17.1c-.16.11-.26,0-.35-.11a14.59,14.59,0,0,0-1.17-1.19.44.44,0,0,1-.16-.44C8.59,25.33,8.57,25.23,8.72,25.25Z"/><path class="cls-121" d="M8.63,25.42a.3.3,0,0,0,.1.28,10.84,10.84,0,0,1,1.34,1.37c0,.05.13.06.2.09a.2.2,0,0,1-.1.18c-.1.05-.21.1-.32,0C9.41,26.88,9,26.44,8.52,26a.39.39,0,0,1-.07-.3l.09-.27S8.59,25.39,8.63,25.42Z"/><path class="cls-122" d="M15.89,23.62a6.67,6.67,0,0,1,1.47,1.28c.28.3-.2.47-.29.71-.23,0-.24-.21-.35-.32-.19-.33-.4-.64-.57-1S15.82,23.91,15.89,23.62Z"/><path class="cls-123" d="M15.89,23.62l.36.63c0,.06-.06.11-.13.12s-.16-.13-.22-.21c-.2-.35-.43-.69-.62-1.06a.53.53,0,0,1-.07-.3c0-.07,0-.12.13-.09Z"/><path class="cls-124" d="M15.34,22.71l-.09.09c-.22,0-.23-.21-.35-.33a5,5,0,0,1-.61-1.19.16.16,0,0,1,.12-.14.28.28,0,0,1,.21.3,3.13,3.13,0,0,0,.54.91C15.15,22.5,15.29,22.58,15.34,22.71Z"/><path class="cls-125" d="M16.61,25.89H15.8a.29.29,0,0,1-.36,0,.14.14,0,0,1,0-.15,1.36,1.36,0,0,1,.66-.09,3.22,3.22,0,0,0,.62,0h.13a.52.52,0,0,1,.22.14C16.94,25.94,16.77,25.86,16.61,25.89Z"/><path class="cls-126" d="M17.07,25.79c-.08,0-.15,0-.18-.09s-.22-.18-.22-.34a.15.15,0,0,1,.13-.11l.27.36Z"/><path class="cls-127" d="M14.62,21.44l-.19-.27c-.28-.2-.52-.43-.45-.82.21,0,.31.18.43.3l2.84,2.78a13.72,13.72,0,0,0,1.41,1.44c.25.2.06.31-.06.43l-2.2,2.21c-.12.12-.22.25-.33.37h-.36c.77-.79,1.52-1.58,2.31-2.35.32-.3.36-.49,0-.82-1-.95-1.95-1.93-2.92-2.9A1.52,1.52,0,0,0,14.62,21.44Z"/><path class="cls-116" d="M15.43,25.88h.37a2.86,2.86,0,0,1-.77.95,5,5,0,0,0-1,1h-.72c.48-.54.93-1.1,1.45-1.6.12-.11.27-.2.27-.4A.25.25,0,0,1,15.43,25.88Z"/><path class="cls-128" d="M16.89,27.88l1-1.07,1.33-1.38.28.36a.13.13,0,0,1,0,.08.16.16,0,0,0,0,0c-.6.48-1,1.12-1.58,1.64a1.52,1.52,0,0,1-.5.37.16.16,0,0,1-.12,0Z"/><path class="cls-129" d="M15.07,30.33c.12-.87.78-1.35,1.33-1.93.11-.11.34-.19.21-.43h.19c.13.12.38-.06.44.12s-.15.34-.29.46c-.4.37-.69.84-1.1,1.2-.2.17-.08.48-.32.63l-.13,0A.39.39,0,0,1,15.07,30.33Z"/><path class="cls-130" d="M15.53,30.33c.2-1,1.11-1.46,1.65-2.21-.09-.13-.3,0-.38-.15h.54a.3.3,0,0,1,.18.06.16.16,0,0,1,.05.11c-.07.35-.38.52-.6.76-.38.4-.86.75-.78,1.42,0,0-.06.06-.1.08A.52.52,0,0,1,15.53,30.33Z"/><path class="cls-131" d="M17.43,28.06,17.34,28v-.09h.09a2.65,2.65,0,0,1,.37-.12c.24,0,.48,0,.72,0s.4-.07.44.22c-.26.21-.57.09-.86.13S17.66,28,17.43,28.06Z"/><path class="cls-130" d="M15.07,30.33h.36c.16.16.5,0,.55.36H15.8a1.06,1.06,0,0,1-.82-.36Z"/><path class="cls-132" d="M20.79,26.88A5.23,5.23,0,0,1,21.67,29c0,.1,0,.21,0,.32-.24,0-.23-.22-.4-.32A2.33,2.33,0,0,1,20,30a5.44,5.44,0,0,1-1.65.25c.27.17.53,0,.78.2a2.85,2.85,0,0,1-.9.07c-.1-.13-.3-.05-.39-.19s.15-.25.29-.33a3.22,3.22,0,0,1,1.07-.25,1.77,1.77,0,0,0,1.39-1c.13-.23-.08-.44,0-.66.38-.14.41.24.64.44-.15-.39-.31-.71-.43-1.05-.05-.19-.22-.35-.13-.57A.09.09,0,0,1,20.79,26.88Z"/><path class="cls-133" d="M17.88,30.33c.15,0,.34-.06.37.18a6.22,6.22,0,0,1-1.36.09c-.12,0-.24,0-.36,0-.27,0-.3-.09-.19-.31a.58.58,0,0,1,.22-.08c.29,0,.58,0,.87,0A.56.56,0,0,1,17.88,30.33Z"/><path class="cls-134" d="M16.34,30.33c0,.11,0,.25.18.2a.32.32,0,0,1,.37.07v.09c-.31.07-.61-.12-.91,0-.16-.16-.45-.12-.55-.36h.73A.12.12,0,0,1,16.34,30.33Z"/><path class="cls-135" d="M19.52,25.88v-.09c.1,0,.21-.13.33-.05a2.35,2.35,0,0,1,.94,1H20.7c-.19,0-.24-.14-.34-.23a.87.87,0,0,0-.66-.28C19.58,26.12,19.47,26.05,19.52,25.88Z"/><path class="cls-136" d="M19.7,26.16c.21-.23.35,0,.52.07a2.38,2.38,0,0,1,.48.47l.09.18H20.7c-.34,0-.48-.39-.82-.37a.37.37,0,0,1-.21-.23A.12.12,0,0,1,19.7,26.16Z"/><path class="cls-137" d="M16.8,22.44A35.9,35.9,0,0,1,14.19,20a1.48,1.48,0,0,0-.66-.44c-.48-.15-.51-.61-.67-1,.16-.25.32-.09.44,0,.73.71,1.47,1.4,2.14,2.16.34.38.71.74,1.06,1.11.13.14.3.26.34.47A.28.28,0,0,1,16.8,22.44Z"/><path class="cls-138" d="M16.8,22.44v-.09c.41,0,.61.34.91.54s.2.44.44.55l.1.36A3.72,3.72,0,0,1,16.8,22.44Z"/><path class="cls-139" d="M14,20.35a5,5,0,0,0,.45.82l-.09.09c-.13,0-.17-.08-.24-.15-.17-.24-.27-.51-.45-.74a1.81,1.81,0,0,1-.26-.65c0-.07,0-.12.14-.09A2.72,2.72,0,0,0,14,20.35Z"/><path class="cls-140" d="M13.53,19.63l-.09.09c-.14,0-.18-.08-.25-.15a1.69,1.69,0,0,1-.3-.67l-.09-.27a.09.09,0,0,1,0-.06s0,0,0,0a.08.08,0,0,1,.1,0,3.58,3.58,0,0,0,.64,1Z"/><path class="cls-128" d="M12.89,18.54H12.8a.47.47,0,0,1-.2-.45c.23-.4.46-.2.68,0,.8.79,1.59,1.59,2.39,2.39a7.38,7.38,0,0,0,1.13.87l.27.27a2.81,2.81,0,0,0,.54.91.58.58,0,0,0,.1.36,4.85,4.85,0,0,1-.91-.54c-1.18-1.27-2.36-2.53-3.6-3.74C13.11,18.52,13,18.45,12.89,18.54Z"/><path class="cls-141" d="M10.08,17.81a7.84,7.84,0,0,1,.69-1.19c.29-.55.63-1.08.94-1.62.15-.15.21-.39.48-.37.1.2,0,.34-.13.49a10.74,10.74,0,0,0-.58,1.05c0,.07-.1.13-.14.2a7.71,7.71,0,0,1-.92,1.47A.5.5,0,0,1,10.08,17.81Z"/><path class="cls-142" d="M10.08,17.81a.26.26,0,0,1,.28,0,1.9,1.9,0,0,1-.31.83c-.2.29-.35.63-.54.93s-.19.56-.54.61c-.29-.3,0-.5.11-.74a2.6,2.6,0,0,1,.46-.72c.09-.11.09-.26.18-.37Z"/><path class="cls-143" d="M9.08,19.44c0,.25-.25.46-.09.73s-.13.43-.2.65-.27.43-.38.66c-.07.08-.12.21-.27.13-.33-.35.1-.59.13-.9l.63-1.18Z"/><path class="cls-144" d="M12.17,14.63l-.46.37v-.18c.25-.11.34-.43.64-.46l-.09.27S12.2,14.67,12.17,14.63Z"/><path class="cls-143" d="M9.72,18.35a.33.33,0,0,1-.18.37C9.53,18.56,9.55,18.42,9.72,18.35Z"/><path class="cls-145" d="M15.52,19c.15.5.54.88.73,1.36-.15.24-.3,0-.39,0-.56-.5-1.15-1-1.69-1.49a9.81,9.81,0,0,1-.79-.79c-.27-.33-.54-.43-.91-.19a.34.34,0,0,1-.2-.15c-.06-.11-.17-.21-.11-.36.8-.75.66-.79,1.51.05.39.41.79.8,1.19,1.2a1.27,1.27,0,0,0,.56.35A.17.17,0,0,1,15.52,19Z"/><path class="cls-146" d="M12.44,17.81c.59-.44.44-.43.92.07.81.83,1.7,1.56,2.55,2.35.09.09.18.21.34.12l.36.54.19.46c-.17.16-.28,0-.39-.09-1.08-.88-2-1.93-3-2.9a1.23,1.23,0,0,1-.25-.26c-.18-.24-.35-.17-.53,0h-.06C12.47,18,12.39,17.94,12.44,17.81Z"/><path class="cls-147" d="M15.52,19h-.09c-.36-.31-.48-.79-.78-1.14s-.29-.57-.48-.82-.53-.66-.46-1.12c.43.21.55.67.8,1a1,1,0,0,0,.29.33,4.5,4.5,0,0,0,.56,1.09A1,1,0,0,1,15.52,19Z"/><path class="cls-148" d="M13.71,15.91,14.26,17c-.23.13-.37,0-.52-.14a3.93,3.93,0,0,1-.53-.55,3.07,3.07,0,0,1-.2-.5c-.23-.46-.6-.5-.91-.09-.15.2-.26.45-.54.51a.17.17,0,0,1-.12,0c0-.46.36-.73.53-1.1a1.67,1.67,0,0,0,.2-.45h.09l.72.19C13.29,15.14,13.38,15.6,13.71,15.91Z"/><path class="cls-149" d="M9.36,21.89a19.5,19.5,0,0,1-2.43,2.38c-.17.13-.16.47-.48.43L6.82,24c.21-.17.2-.5.44-.64s.54-.27.76-.49a5.56,5.56,0,0,0,.62-.66l.09-.09C8.93,22,9.08,21.75,9.36,21.89Z"/><path class="cls-150" d="M7.81,26.7v.18c-.07.06,0,.23-.19.2A2,2,0,0,1,7,26.61a10.13,10.13,0,0,0-1.07-1v-.09l.27-.36A10.33,10.33,0,0,0,7.81,26.7Z"/><path class="cls-151" d="M8.72,22.16v.1a2.36,2.36,0,0,0-.63.63c-.25.19-.33.71-.83.45l.2-.54c.11-.29.17-.62.51-.76a.51.51,0,0,0,.46-.1c.12-.08.26-.17.41,0S8.82,22.1,8.72,22.16Z"/><path class="cls-152" d="M8,22.07c-.28.17-.25.56-.53.73-.08,0-.2.09-.18-.08a1,1,0,0,1,.1-.39,12.76,12.76,0,0,1,.89-1.62c.06.31-.32.58-.09.91A.4.4,0,0,1,8,22.07Z"/><path class="cls-153" d="M5.36,30.15H4.55a2.76,2.76,0,0,1-.74-.82v-.18c.07-.15,0-.38.29-.39a.47.47,0,0,1,.23.21,1.71,1.71,0,0,0,.8.77C5.29,29.82,5.48,29.91,5.36,30.15Z"/><path class="cls-154" d="M3.81,29.33a2.16,2.16,0,0,1,.74.82H3.82c.06-.24-.18-.25-.27-.37A.59.59,0,0,1,3.81,29.33Z"/><path class="cls-155" d="M4.37,27.34v-.1c.06-.07,0-.22.18-.24a.26.26,0,0,1,.19,0c.1.16,0,.29-.08.41a.85.85,0,0,0-.12.6l0,.13c-.14.18-.1.52-.45.52-.3-.39.1-.7.14-1.05A.74.74,0,0,1,4.37,27.34Z"/><path class="cls-156" d="M4.37,27.34c-.1.27-.17.55-.28.81a.54.54,0,0,0,0,.55s0,0,0,.06,0,0,0,0l-.27.36A2.51,2.51,0,0,1,4.37,27.34Z"/><path class="cls-106" d="M4.55,27.06l-.18.18a.5.5,0,0,1,.18-.45h0A.19.19,0,0,1,4.55,27.06Z"/><path class="cls-157" d="M5.64,26h.08c.28-.13.47.05.64.2a13.74,13.74,0,0,1,1.15,1.14.44.44,0,0,1-.1.38.23.23,0,0,1-.12.06c-.36,0-.54-.29-.78-.47s-.51-.55-.91-.62a.29.29,0,0,1-.19-.23A.53.53,0,0,1,5.64,26Z"/><path class="cls-158" d="M7.45,27.34c-.32-.31-.65-.61-1-.93A1.61,1.61,0,0,0,5.72,26c0-.15.13-.24.19-.36a1.8,1.8,0,0,1,.79.55c.28.32.62.6.93.9a.15.15,0,0,1,0,.11C7.62,27.26,7.59,27.37,7.45,27.34Z"/><path class="cls-159" d="M5.64,26l-.19.45a.15.15,0,0,1-.11.13c-.3.06-.35.4-.61.5H4.55v-.27c.27-.14.35-.46.59-.64S5.41,25.86,5.64,26Z"/><path class="cls-160" d="M6.45,30,6,30.06a.23.23,0,0,1-.07-.17c.05-.17.19-.28.24-.44.23-.31.38-.67.58-1,.09-.14.15-.3.24-.43s.15-.24.32-.12a1.06,1.06,0,0,0,.42.85l.29.29c.19.21.46.42.27.73a.84.84,0,0,1-.83.35C7.13,30.09,6.79,30,6.45,30Z"/><path class="cls-161" d="M6.45,30c.51-.11,1,.18,1.54-.07.34-.16.35-.33.13-.57a5.35,5.35,0,0,0-.63-.63.63.63,0,0,1-.22-.83c-.06-.06,0-.11,0-.17h.09c.46.58,1,1.05,1.52,1.6.36.39.35.72,0,1a11.61,11.61,0,0,1-1.56,0A.39.39,0,0,1,7,30.24C6.91,30,6.59,30.15,6.45,30Z"/><path class="cls-162" d="M6,29.88v.18a1.08,1.08,0,0,1-.64.09.23.23,0,0,0-.15-.25,2.13,2.13,0,0,1-1.12-1.11V28.7l.37-.55A5.43,5.43,0,0,0,6,29.88Z"/><path class="cls-163" d="M7,30.24H9a.11.11,0,0,1,.14,0c.12.17,0,.23-.14.26a1.26,1.26,0,0,1-.72,0,6.11,6.11,0,0,1-2.16-.27Z"/><path class="cls-164" d="M10.44,30.24c.23.21.07.31-.12.35a5.13,5.13,0,0,1-1.51.19l.27-.18c.29-.19.69-.11.93-.41a.41.41,0,0,1,.19-.05A.28.28,0,0,1,10.44,30.24Z"/><path class="cls-161" d="M10,30.24c0,.32-.32.26-.5.35a1.12,1.12,0,0,1-.41,0c-.27,0-.56.09-.81-.09A2.07,2.07,0,0,0,9,30.44c.13-.05.1-.12.07-.2a.7.7,0,0,1,.54-.13A.51.51,0,0,1,10,30.24Z"/><path class="cls-165" d="M10.44,30.24h-.27A10.07,10.07,0,0,0,8.22,28a1.92,1.92,0,0,1-.55-.71c0-.09,0-.19.14-.16a10.41,10.41,0,0,1,2.82,3.09Z"/><path class="cls-166" d="M8.72,22.16l.09-.27a.2.2,0,0,1,.07-.24c1-1.18,2.16-2.3,3.3-3.39a.56.56,0,0,1,.2-.11l.06,0a.27.27,0,0,1,.12,0,.57.57,0,0,1,.15.47c-.34,0-.5.25-.67.46-.78.93-1.69,1.72-2.52,2.59l-.16.21C9.1,21.89,9,22.14,8.72,22.16Z"/><path class="cls-167" d="M12.89,18.9a2.48,2.48,0,0,1,.37.63c0,.13-.06.13-.12.09-.3-.19-.47,0-.69.18s-.4.7-.83.82c-.09-.05-.12-.2-.27-.18A16,16,0,0,1,12.89,18.9Z"/><path class="cls-168" d="M12.71,18.63l-.18-.46q0-.12.09-.09h0l.18.45v.1Z"/><path class="cls-77" d="M13.72,20.35c.25.18.29.49.45.72-.09.22-.2.06-.27,0a7.73,7.73,0,0,1-.58-.56c-.39-.37-.46-.35-.85,0-.21.18-.28.49-.58.57L11.8,21l-.08-.19a2.71,2.71,0,0,1,.94-1.1.36.36,0,0,1,.49.08A7.66,7.66,0,0,1,13.72,20.35Z"/><path class="cls-169" d="M13.72,20.35a1.72,1.72,0,0,1-.64-.49c-.16-.17-.3-.18-.46,0l-.9.95-.1-.18.69-.82c.25-.31.52-.58.95-.27l.18.19Z"/><path class="cls-170" d="M7.81,27.15a.2.2,0,0,0-.09.19.09.09,0,0,1-.11,0,.17.17,0,0,1,0-.18v-.09l.18-.18Z"/><path class="cls-119" d="M11.89,21.08a2.7,2.7,0,0,1,.58-.72c.37-.36.46-.36.85,0L14,21c0,.05.09.18.21.07l.17.19L15,22.44c-.16.21-.26,0-.34-.07-.41-.38-.8-.78-1.19-1.18-.56-.55-.55-.55-1.09,0-.08.08-.13.22-.29.17H12Z"/><path class="cls-171" d="M12.07,21.35c.76-.93.76-.93,1.61-.08.35.36.7.71,1.06,1.05.06.06.09.22.24.12l.27.36.1.27c0,.17-.1.11-.17.08a1.21,1.21,0,0,1-.5-.37c-.47-.51-1-.93-1.51-1.42-.18-.18-.34-.23-.53,0a.61.61,0,0,1-.47.23c-.08,0-.12-.05-.1-.13Z"/><path class="cls-75" d="M12.07,21.44l.1.09s0,0,0,.06l0,0L9.42,24.31c-.09.09-.13.3-.34.22,0-.24.24-.37.36-.55.75-.77,1.5-1.53,2.24-2.31C11.8,21.54,11.88,21.42,12.07,21.44Z"/><path class="cls-172" d="M14.53,25.88c-.09.37-.43.53-.65.78s-.39.38-.56.59c-.35.43-.38.43-.79,0l-1.45-1.41a.09.09,0,0,1,0-.13.86.86,0,0,1,.65,0c.33.27.59.6.89.89a.36.36,0,0,0,.61,0,4,4,0,0,0,.47-.54A.54.54,0,0,1,14.53,25.88Z"/><path class="cls-173" d="M11.08,25.79v.09l-.18.19c-.24.12-.36-.08-.49-.2-.76-.72-.77-.76,0-1.48s1.25-1.26,1.83-1.93c.09-.1.16-.22.31-.25s.22.14.24.29a1,1,0,0,1-.37.64c-.51.51-1,1-1.53,1.53s-.43.49,0,.89C11,25.63,11.06,25.68,11.08,25.79Z"/><path class="cls-174" d="M14.53,25.88a.8.8,0,0,0-.84.41c-.65.87-.68.85-1.43.09-.17-.17-.42-.3-.46-.58a.48.48,0,0,1,.38-.13h.56c.41,0,.81,0,1.22,0,.21,0,.42,0,.63,0a4.34,4.34,0,0,1,.72,0,.23.23,0,0,1,.12.1v.08h-.9Z"/><path class="cls-175" d="M12.53,22.26a33.16,33.16,0,0,1-2.38,2.51c-.27.25-.31.45,0,.68s.4.54.75.62v.09c-.06.09-.19.13-.18.27-.2,0-.26-.13-.35-.23a7.26,7.26,0,0,0-.77-.7c-.19-.17-.31-.37-.09-.59.93-.9,1.74-1.93,2.71-2.79a.4.4,0,0,1,.16-.08.21.21,0,0,1,.17.09A.12.12,0,0,1,12.53,22.26Z"/><path class="cls-117" d="M12.44,22.07c-1,.89-1.88,2-2.88,2.93-.19.18,0,.31.09.4a6.94,6.94,0,0,1,1.07,1l-.1.18a7.59,7.59,0,0,1-1.47-1.36c-.12-.12,0-.21.1-.3a26,26,0,0,1,2.12-2.21c.31-.3.54-.69,1-.84l.06,0A.12.12,0,0,1,12.44,22.07Z"/><path class="cls-176" d="M8.63,25.42H8.54c-.22-.36-.1-.56.45-.82,0,.25-.27.39-.27.64A.18.18,0,0,0,8.63,25.42Z"/><path class="cls-177" d="M12.17,21.62v-.09c.1-.06.24-.09.3-.18.34-.51.59-.26.9,0,.49.51,1,1,1.54,1.45.11.11.23.26.44.22A5.93,5.93,0,0,1,16,24.16c-.13.26-.24,0-.3,0-.28-.24-.52-.51-.78-.76-.51-.51-1-1-1.54-1.53s-.49-.4-.88,0a.14.14,0,0,1-.12,0h0Z"/><path class="cls-178" d="M16.8,25.25l-.09.09a.34.34,0,0,1-.2-.15c-.15-.27-.39-.5-.35-.85l.09-.09C16.43,24.58,16.61,24.92,16.8,25.25Z"/><path class="cls-179" d="M16.16,24.34l.44.82a.9.9,0,0,1-.33.56.27.27,0,0,1-.12,0,.65.65,0,0,1-.19,0c-.24-.05-.37-.15-.17-.39s.11-.42-.08-.62c-.82-.86-1.75-1.61-2.56-2.48-.21-.22-.41,0-.62-.08l-.09-.09-.08-.18c.34-.65.51-.69,1.05-.16.75.74,1.48,1.49,2.24,2.22.08.09.12.3.33.21Z"/><path class="cls-180" d="M16.25,25.7c0-.24.24-.36.35-.54l.11.18c0,.13.19.21.18.36h-.1A.77.77,0,0,1,16.25,25.7Z"/><path class="cls-181" d="M16,25.7h.18s0,0,0,.05,0,0,0,0h-.82a.08.08,0,0,1,0-.12.3.3,0,0,1,.2-.06A2.84,2.84,0,0,1,16,25.7Z"/><path class="cls-126" d="M16.16,25.79v-.08h.63C16.6,25.87,16.37,25.76,16.16,25.79Z"/><path class="cls-182" d="M19.7,26.16v.09a11.87,11.87,0,0,0-1.21,1c-.19.25-.35.53-.7.59h-.36A15.21,15.21,0,0,0,19,26.25a1.55,1.55,0,0,1,.51-.37Z"/><path class="cls-134" d="M17.43,30.33h-.91c-.29-.4-.29-.59,0-.94s.67-.69,1-1c.16-.15.12-.23,0-.32h-.09c.19-.17.42,0,.64-.09s.25,0,.36.07c0,.38-.4.52-.59.8a6.77,6.77,0,0,1-.59.61c-.29.3-.28.37.06.61C17.41,30.13,17.54,30.18,17.43,30.33Z"/><path class="cls-183" d="M17.52,28.06l.5,0c-.45.44-.82.84-1.23,1.19a.79.79,0,0,0-.27,1h-.36a1,1,0,0,1,.3-1.08C16.81,28.85,17.31,28.58,17.52,28.06Z"/><path class="cls-184" d="M18.43,28.06c-.13,0-.27,0-.36-.09h1a1.9,1.9,0,0,1,.82.05c.17.2,0,.34-.11.46A7.63,7.63,0,0,1,18.08,30a.52.52,0,0,1-.59-.31c-.12-.25.07-.42.22-.58s.48-.49.73-.72S18.6,28.17,18.43,28.06Z"/><path class="cls-185" d="M17.79,27.88a3.6,3.6,0,0,0,.73-.78,3.22,3.22,0,0,1,1.18-.85l.18.18c.1.06.18.14.12.27a4.87,4.87,0,0,0-.9.8,1.25,1.25,0,0,1-.58.38Z"/><path class="cls-186" d="M18.52,27.88c.33-.32.67-.63,1-.95.13-.13.26-.26.46-.23s.18.08.22.18a.17.17,0,0,1,0,.12,12.52,12.52,0,0,0-1.09,1S19,28,19,28h0C18.85,27.82,18.67,27.9,18.52,27.88Z"/><path class="cls-187" d="M18.07,30a20.06,20.06,0,0,0,1.55-1.51c.11-.12.26-.21.26-.4a.59.59,0,0,1,.73,0,.77.77,0,0,1-.17,1.11,1.69,1.69,0,0,1-1.57.68c-.24-.05-.44.24-.71.21C18.06,30.09,18,30.05,18.07,30Z"/><path class="cls-161" d="M18.07,30l.09.09-.28.27h-.45s0-.13-.08-.15c-.6-.3-.62-.37-.16-.83l1.24-1.29c.12,0,.26,0,.43.09l-1,1C17.38,29.61,17.42,29.75,18.07,30Z"/><path class="cls-188" d="M20.61,28.06h-.73c-.3,0-.62.1-.91-.09h.09c.31-.21.65-.1,1-.12.48,0,.49,0,.25-.42-.08-.14-.19-.27-.13-.46v-.09c.47-.12.53.31.73.55.14.42.47.78.45,1.3C21,28.62,21,28.07,20.61,28.06Z"/><path class="cls-189" d="M20.88,27.43c-.24-.2-.38-.5-.73-.55L20,26.7l-.09-.27c.41-.09.54.31.82.45Z"/><path class="cls-190" d="M10,18.62a2.7,2.7,0,0,1,.37-.81,10.32,10.32,0,0,0,.9-1.54c.17-.11.26,0,.32.13.15.27.41.49.36.84-.56.45-.92,1.12-1.62,1.4C10.15,18.71,10.15,18.71,10,18.62Z"/><path class="cls-191" d="M11.9,17.26a1.86,1.86,0,0,0-.64-1,.17.17,0,0,1,.18-.09h.09c.27.19.35.51.52.77s.19.24.12.41l.18.27c0,.05-.06.11-.13.12a.18.18,0,0,1-.11-.05A1,1,0,0,1,11.9,17.26Z"/><path class="cls-192" d="M11.9,17.26a.59.59,0,0,1,.27.46A9.11,9.11,0,0,1,11,18.81a3.3,3.3,0,0,1-1.33.82c-.09,0-.24.12-.25-.1a3.25,3.25,0,0,1,.55-.91,1.87,1.87,0,0,0,1.13-.73A1.78,1.78,0,0,1,11.9,17.26Z"/><path class="cls-193" d="M9.44,19.53A2.68,2.68,0,0,0,10.65,19l.34-.29c.12.27-.08.44-.23.58a7.85,7.85,0,0,1-1.68,1.47c-.12.05-.21.19-.36.11a.09.09,0,0,1,0-.08A2.35,2.35,0,0,1,9,20.17Z"/><path class="cls-194" d="M8.72,20.8c.35,0,.55-.3.79-.48A4.73,4.73,0,0,0,11,18.72c.44-.29.67-.8,1.18-1h.09c.13.12.28.24.18.45h0a.67.67,0,0,0-.43.22c-.82.9-1.73,1.72-2.57,2.61a1.82,1.82,0,0,1-.88.53c-.08,0-.21.1-.21-.1A1.35,1.35,0,0,1,8.72,20.8Z"/><path class="cls-195" d="M8.35,21.43A1.19,1.19,0,0,0,9.28,21c.89-.9,1.83-1.74,2.65-2.7a.36.36,0,0,1,.51-.13,51,51,0,0,0-3.63,3.72.65.65,0,0,0-.42.21c-.16.16-.28.12-.4,0,.06-.15.12-.3.19-.45Z"/><path class="cls-196" d="M12.17,17.36,12,17a2.07,2.07,0,0,1,.54-.64.53.53,0,0,1,.73-.08c.36.2.53.67,1,.72a3.11,3.11,0,0,1,.45.82c0,.2-.17.11-.27.09a1.75,1.75,0,0,1-.82-.45C13.18,16.8,12.69,16.83,12.17,17.36Z"/><path class="cls-197" d="M13.62,17.45c.37.11.66.43,1.09.36A4.61,4.61,0,0,1,15.43,19c-.21.07-.37-.07-.5-.2C14.48,18.36,14.06,17.9,13.62,17.45Z"/><path class="cls-198" d="M12.44,18.17l-.18-.45.09-.09.09.18.18.27-.09.09Z"/><path class="cls-199" d="M13.26,16.27a.9.9,0,0,0-.95.46c-.09.11-.14.27-.32.26a3.25,3.25,0,0,1-.46-.81,1.2,1.2,0,0,0,.47-.53c.14-.22.31-.42.56-.36a.78.78,0,0,1,.6.54C13.2,16,13.22,16.12,13.26,16.27Z"/><path class="cls-166" d="M8.09,22.89a.91.91,0,0,1,.63-.63A2.9,2.9,0,0,1,8.09,22.89Z"/><path class="cls-200" d="M6,29.88a2.66,2.66,0,0,1-1.54-1.73v-.09c.11-.33.19-.69.55-.86.19.06.2.22.17.37a1.16,1.16,0,0,0,.45,1.1c.25.25.56.46.64.84A.91.91,0,0,1,6,29.88Z"/><path class="cls-201" d="M5,27.24l-.54.82c-.2-.41.2-.66.27-1s.17-.65.63-.54c.06.28-.13.45-.27.65Z"/><path class="cls-202" d="M7.63,27.15v.19a1.32,1.32,0,0,0,.43.56,16.8,16.8,0,0,1,1.42,1.38.68.68,0,0,1,.15,1H9a.93.93,0,0,0-.34-1c-.37-.33-.7-.7-1.06-1.05-.13-.13-.26-.26-.23-.46l.09-.36Z"/><path class="cls-203" d="M5,27.15l.35-.63.09-.09c.73.24,1.15.93,1.82,1.27v.17c-.25.15-.24.47-.45.65a1.22,1.22,0,0,1-.33-.31A3.27,3.27,0,0,0,5,27.15Z"/><path class="cls-204" d="M5,27.15c.91.05,1.35.72,1.81,1.37-.19.33-.37.66-.55,1-.26-.27-.5-.55-.77-.81a1.09,1.09,0,0,1-.42-1.18A.23.23,0,0,0,5,27.24.28.28,0,0,1,5,27.15Z"/><path class="cls-205" d="M9.63,30.24a1,1,0,0,0-.36-1c-.48-.45-.92-.93-1.44-1.35-.15-.11-.37-.24-.2-.5h.09c.71.72,1.42,1.45,2.14,2.17a1.07,1.07,0,0,1,.31.73H9.63Z"/><path class="cls-206" d="M12.17,25.79H11.08a.2.2,0,0,1-.08,0c-.75-.43-.78-.59-.18-1.2l1.43-1.43a1.66,1.66,0,0,0,.46-.59.22.22,0,0,1,.09.17c0,.43-.4.67-.56,1a5.74,5.74,0,0,1-1,1.07c-.14.15-.26.28-.15.51a.41.41,0,0,0,.49.29,3.37,3.37,0,0,1,.44,0,.24.24,0,0,1,.11.06A.08.08,0,0,1,12.17,25.79Z"/><path class="cls-207" d="M12.72,22.69v-.16l-.18-.27v-.1c.28-.33.49-.2.75.06.83.83,1.68,1.64,2.53,2.44.25.24.39.47.06.74s.07.2.11.3h-.46c-.13-.11-.3.06-.43-.05s0-.17.07-.21c.35-.21.31-.41.05-.68-.64-.65-1.3-1.29-1.94-1.93-.13-.13-.25-.29-.45-.1A.07.07,0,0,1,12.72,22.69Z"/><path class="cls-208" d="M14,25.79H12.71s0-.08,0-.11.27-.07.38-.15.39-.23.39-.46-.23-.37-.4-.5-.36.06-.49.19-.35.27-.18.53.29.26.08.45c-.11,0-.22,0-.32,0h0c-.08-.08-.18-.15-.26-.24a.43.43,0,0,1,0-.67c.23-.24.46-.47.7-.7a.44.44,0,0,1,.7,0,1.09,1.09,0,0,0,.54.38,1.14,1.14,0,0,1,.57.85C14.38,25.58,14.17,25.68,14,25.79Z"/><path class="cls-209" d="M14,25.79l.37-.45c.22,0,.23.2.3.34a.11.11,0,0,1,0,.11Z"/><path class="cls-210" d="M14.62,25.79V25.7c.24-.21.48,0,.72,0v.08Z"/><path class="cls-211" d="M12.71,25.7v.09h-.54V25.7h.36A.13.13,0,0,1,12.71,25.7Z"/><path class="cls-212" d="M15.34,25.71h-.72l-.27-.36c-.17-.29-.24-.63-.54-.83a3,3,0,0,1-.61-1.08c.12-.33.34-.26.53-.1a18.8,18.8,0,0,1,1.36,1.32c.3.33.26.55-.09.88-.07.07.08,0,.07.08.15,0,.32-.06.45.09Z"/><path class="cls-213" d="M20.15,27l.43.68c.13.21.12.33-.17.32H19.06C19.27,27.46,19.74,27.25,20.15,27Z"/><path class="cls-211" d="M13.26,23.43c.15.38.49.66.55,1.08-.29.18-.37-.12-.47-.24-.28-.32-.52-.36-.79,0a.43.43,0,0,1-.09.1,4.24,4.24,0,0,0-.59.61c-.22.34.33.42.3.72h-.55c-.49-.45-.48-.46-.14-1a7.91,7.91,0,0,1,.71-.81c.28-.24.5-.58.94-.55C13.2,23.32,13.23,23.38,13.26,23.43Z"/><path class="cls-214" d="M12.26,23.89c-.22.34-.56.56-.76.93s-.25.47,0,.68c.05,0,.06.13.08.2-.16-.06-.38.14-.52-.16s-.25-.55.1-.83a13.11,13.11,0,0,0,1-1,.08.08,0,0,1,.11,0A.14.14,0,0,1,12.26,23.89Z"/><path class="cls-215" d="M12.26,23.71h-.09c.07-.4.51-.6.55-1h.09c.19,0,.2.14.22.27A1.28,1.28,0,0,1,12.26,23.71Z"/><path class="cls-216" d="M13,23l-.17-.28c0-.27.14-.34.36-.13.76.77,1.52,1.54,2.3,2.3.2.19.1.35,0,.5a2.35,2.35,0,0,1-.37.24h-.35c.2-.11.38-.18.45-.43s-.09-.41-.23-.55c-.42-.42-.86-.82-1.29-1.23-.14-.13-.28-.2-.39,0l-.1-.08C13.05,23.25,12.94,23.15,13,23Z"/><path class="cls-217" d="M12.71,25.7h-.18a.61.61,0,0,0,0-.13c-.08-.19-.39-.27-.3-.51s.38-.44.6-.65a.19.19,0,0,1,.28,0,.37.37,0,0,1,.13.12c.14.21.57.33.43.6A.86.86,0,0,1,12.71,25.7Z"/><path class="cls-218" d="M13,23c.06.12.19.21.18.37-.39,0-.61.33-.9.54v-.18A3.56,3.56,0,0,0,13,23Z"/></g></g></svg>